<?xml version="1.0" encoding="us-ascii" standalone="no"?><svg xmlns="http://www.w3.org/2000/svg" xmlns:xlink="http://www.w3.org/1999/xlink" contentStyleType="text/css" height="843px" preserveAspectRatio="none" style="width:635px;height:843px;background:#FFFFFF;" version="1.1" viewBox="0 0 635 843" width="635px" zoomAndPan="magnify"><defs/><g><text fill="#000000" font-family="sans-serif" font-size="14" font-weight="bold" lengthAdjust="spacing" textLength="255" x="188.5313" y="34.5332">Deployment Phase - Activity Diagram</text><ellipse cx="378.0625" cy="58.6094" fill="#222222" rx="10" ry="10" style="stroke:#222222;stroke-width:1.0;"/><path d="M497.0625,78.6094 L497.0625,104.1367 L477.0625,108.1367 L497.0625,112.1367 L497.0625,137.6641 A0,0 0 0 0 497.0625,137.6641 L623.0625,137.6641 A0,0 0 0 0 623.0625,137.6641 L623.0625,88.6094 L613.0625,78.6094 L497.0625,78.6094 A0,0 0 0 0 497.0625,78.6094 " fill="#FEFFDD" style="stroke:#181818;stroke-width:0.5;"/><path d="M613.0625,78.6094 L613.0625,88.6094 L623.0625,88.6094 L613.0625,78.6094 " fill="#FEFFDD" style="stroke:#181818;stroke-width:0.5;"/><ellipse cx="508.5625" cy="92.4609" fill="#000000" rx="2.5" ry="2.5" style="stroke:#000000;stroke-width:0.0;"/><text fill="#000000" font-family="sans-serif" font-size="13" lengthAdjust="spacing" textLength="72" x="515.0625" y="97.1045">Server setup</text><ellipse cx="508.5625" cy="108.8125" fill="#000000" rx="2.5" ry="2.5" style="stroke:#000000;stroke-width:0.0;"/><text fill="#000000" font-family="sans-serif" font-size="13" lengthAdjust="spacing" textLength="93" x="515.0625" y="113.4561">Database config</text><ellipse cx="508.5625" cy="125.1641" fill="#000000" rx="2.5" ry="2.5" style="stroke:#000000;stroke-width:0.0;"/><text fill="#000000" font-family="sans-serif" font-size="13" lengthAdjust="spacing" textLength="84" x="515.0625" y="129.8076">Security setup</text><rect fill="#F1F1F1" height="35.0938" rx="12.5" ry="12.5" style="stroke:#181818;stroke-width:0.5;" width="198" x="279.0625" y="90.5898"/><text fill="#000000" font-family="sans-serif" font-size="12" lengthAdjust="spacing" textLength="178" x="289.0625" y="113.0469">Prepare Production Environment</text><rect fill="#F1F1F1" height="35.0938" rx="12.5" ry="12.5" style="stroke:#181818;stroke-width:0.5;" width="137" x="309.5625" y="157.6641"/><text fill="#000000" font-family="sans-serif" font-size="12" lengthAdjust="spacing" textLength="117" x="319.5625" y="180.1211">Install Dependencies</text><rect fill="#F1F1F1" height="35.0938" rx="12.5" ry="12.5" style="stroke:#181818;stroke-width:0.5;" width="187" x="284.5625" y="212.7578"/><text fill="#000000" font-family="sans-serif" font-size="12" lengthAdjust="spacing" textLength="167" x="294.5625" y="235.2148">Deploy Application &amp; ML Model</text><rect fill="#F1F1F1" height="35.0938" rx="12.5" ry="12.5" style="stroke:#181818;stroke-width:0.5;" width="146" x="305.0625" y="267.8516"/><text fill="#000000" font-family="sans-serif" font-size="12" lengthAdjust="spacing" textLength="126" x="315.0625" y="290.3086">Configure Environment</text><rect fill="#F1F1F1" height="35.0938" rx="12.5" ry="12.5" style="stroke:#181818;stroke-width:0.5;" width="150" x="303.0625" y="322.9453"/><text fill="#000000" font-family="sans-serif" font-size="12" lengthAdjust="spacing" textLength="130" x="313.0625" y="345.4023">Perform Smoke Testing</text><polygon fill="#F1F1F1" points="330.5625,378.0391,425.5625,378.0391,437.5625,390.0391,425.5625,402.0391,330.5625,402.0391,318.5625,390.0391,330.5625,378.0391" style="stroke:#181818;stroke-width:0.5;"/><text fill="#000000" font-family="sans-serif" font-size="11" lengthAdjust="spacing" textLength="95" x="330.5625" y="394.54">Smoke Tests Pass?</text><text fill="#000000" font-family="sans-serif" font-size="11" lengthAdjust="spacing" textLength="18" x="300.5625" y="387.6221">yes</text><text fill="#000000" font-family="sans-serif" font-size="11" lengthAdjust="spacing" textLength="12" x="437.5625" y="387.6221">no</text><rect fill="#F1F1F1" height="35.0938" rx="12.5" ry="12.5" style="stroke:#181818;stroke-width:0.5;" width="139" x="175.625" y="412.0391"/><text fill="#000000" font-family="sans-serif" font-size="12" lengthAdjust="spacing" textLength="119" x="185.625" y="434.4961">Enable API Endpoints</text><rect fill="#F1F1F1" height="35.0938" rx="12.5" ry="12.5" style="stroke:#181818;stroke-width:0.5;" width="90" x="200.125" y="467.1328"/><text fill="#000000" font-family="sans-serif" font-size="12" lengthAdjust="spacing" textLength="70" x="210.125" y="489.5898">Perform UAT</text><polygon fill="#F1F1F1" points="212.125,522.2266,278.125,522.2266,290.125,534.2266,278.125,546.2266,212.125,546.2266,200.125,534.2266,212.125,522.2266" style="stroke:#181818;stroke-width:0.5;"/><text fill="#000000" font-family="sans-serif" font-size="11" lengthAdjust="spacing" textLength="66" x="212.125" y="538.7275">UAT Passed?</text><text fill="#000000" font-family="sans-serif" font-size="11" lengthAdjust="spacing" textLength="18" x="182.125" y="531.8096">yes</text><text fill="#000000" font-family="sans-serif" font-size="11" lengthAdjust="spacing" textLength="12" x="290.125" y="531.8096">no</text><rect fill="#F1F1F1" height="35.0938" rx="12.5" ry="12.5" style="stroke:#181818;stroke-width:0.5;" width="61" x="100.75" y="556.2266"/><text fill="#000000" font-family="sans-serif" font-size="12" lengthAdjust="spacing" textLength="41" x="110.75" y="578.6836">Go Live</text><rect fill="#F1F1F1" height="35.0938" rx="12.5" ry="12.5" style="stroke:#181818;stroke-width:0.5;" width="104" x="79.25" y="611.3203"/><text fill="#000000" font-family="sans-serif" font-size="12" lengthAdjust="spacing" textLength="84" x="89.25" y="633.7773">Monitor System</text><polygon fill="#F1F1F1" points="90.25,666.4141,172.25,666.4141,184.25,678.4141,172.25,690.4141,90.25,690.4141,78.25,678.4141,90.25,666.4141" style="stroke:#181818;stroke-width:0.5;"/><text fill="#000000" font-family="sans-serif" font-size="11" lengthAdjust="spacing" textLength="82" x="90.25" y="682.915">Errors Detected?</text><text fill="#000000" font-family="sans-serif" font-size="11" lengthAdjust="spacing" textLength="18" x="60.25" y="675.9971">yes</text><text fill="#000000" font-family="sans-serif" font-size="11" lengthAdjust="spacing" textLength="12" x="184.25" y="675.9971">no</text><rect fill="#F1F1F1" height="35.0938" rx="12.5" ry="12.5" style="stroke:#181818;stroke-width:0.5;" width="97" x="11" y="700.4141"/><text fill="#000000" font-family="sans-serif" font-size="12" lengthAdjust="spacing" textLength="77" x="21" y="722.8711">Rollback &amp; Fix</text><rect fill="#F1F1F1" height="35.0938" rx="12.5" ry="12.5" style="stroke:#181818;stroke-width:0.5;" width="150" x="128" y="700.4141"/><text fill="#000000" font-family="sans-serif" font-size="12" lengthAdjust="spacing" textLength="130" x="138" y="722.8711">Deployment Successful</text><rect fill="#F1F1F1" height="35.0938" rx="12.5" ry="12.5" style="stroke:#181818;stroke-width:0.5;" width="126" x="140" y="755.5078"/><text fill="#000000" font-family="sans-serif" font-size="12" lengthAdjust="spacing" textLength="106" x="150" y="777.9648">Notify Stakeholders</text><ellipse cx="203" cy="821.6016" fill="none" rx="11" ry="11" style="stroke:#222222;stroke-width:1.0;"/><ellipse cx="203" cy="821.6016" fill="#222222" rx="6" ry="6" style="stroke:#222222;stroke-width:1.0;"/><rect fill="#F1F1F1" height="35.0938" rx="12.5" ry="12.5" style="stroke:#181818;stroke-width:0.5;" width="102" x="308" y="556.2266"/><text fill="#000000" font-family="sans-serif" font-size="12" lengthAdjust="spacing" textLength="82" x="318" y="578.6836">Fix UAT Issues</text><rect fill="#F1F1F1" height="35.0938" rx="12.5" ry="12.5" style="stroke:#181818;stroke-width:0.5;" width="142" x="440" y="412.0391"/><text fill="#000000" font-family="sans-serif" font-size="12" lengthAdjust="spacing" textLength="122" x="450" y="434.4961">Fix Issues &amp; Redeploy</text><line style="stroke:#181818;stroke-width:1.0;" x1="378.0625" x2="378.0625" y1="68.6094" y2="90.5898"/><polygon fill="#181818" points="374.0625,80.5898,378.0625,90.5898,382.0625,80.5898,378.0625,84.5898" style="stroke:#181818;stroke-width:1.0;"/><line style="stroke:#181818;stroke-width:1.0;" x1="378.0625" x2="378.0625" y1="125.6836" y2="157.6641"/><polygon fill="#181818" points="374.0625,147.6641,378.0625,157.6641,382.0625,147.6641,378.0625,151.6641" style="stroke:#181818;stroke-width:1.0;"/><line style="stroke:#181818;stroke-width:1.0;" x1="378.0625" x2="378.0625" y1="192.7578" y2="212.7578"/><polygon fill="#181818" points="374.0625,202.7578,378.0625,212.7578,382.0625,202.7578,378.0625,206.7578" style="stroke:#181818;stroke-width:1.0;"/><line style="stroke:#181818;stroke-width:1.0;" x1="378.0625" x2="378.0625" y1="247.8516" y2="267.8516"/><polygon fill="#181818" points="374.0625,257.8516,378.0625,267.8516,382.0625,257.8516,378.0625,261.8516" style="stroke:#181818;stroke-width:1.0;"/><line style="stroke:#181818;stroke-width:1.0;" x1="378.0625" x2="378.0625" y1="302.9453" y2="322.9453"/><polygon fill="#181818" points="374.0625,312.9453,378.0625,322.9453,382.0625,312.9453,378.0625,316.9453" style="stroke:#181818;stroke-width:1.0;"/><line style="stroke:#181818;stroke-width:1.0;" x1="245.125" x2="245.125" y1="447.1328" y2="467.1328"/><polygon fill="#181818" points="241.125,457.1328,245.125,467.1328,249.125,457.1328,245.125,461.1328" style="stroke:#181818;stroke-width:1.0;"/><line style="stroke:#181818;stroke-width:1.0;" x1="131.25" x2="131.25" y1="591.3203" y2="611.3203"/><polygon fill="#181818" points="127.25,601.3203,131.25,611.3203,135.25,601.3203,131.25,605.3203" style="stroke:#181818;stroke-width:1.0;"/><line style="stroke:#181818;stroke-width:1.0;" x1="203" x2="203" y1="735.5078" y2="755.5078"/><polygon fill="#181818" points="199,745.5078,203,755.5078,207,745.5078,203,749.5078" style="stroke:#181818;stroke-width:1.0;"/><line style="stroke:#181818;stroke-width:1.0;" x1="203" x2="203" y1="790.6016" y2="810.6016"/><polygon fill="#181818" points="199,800.6016,203,810.6016,207,800.6016,203,804.6016" style="stroke:#181818;stroke-width:1.0;"/><line style="stroke:#181818;stroke-width:1.0;" x1="78.25" x2="59.5" y1="678.4141" y2="678.4141"/><line style="stroke:#181818;stroke-width:1.0;" x1="59.5" x2="59.5" y1="678.4141" y2="700.4141"/><polygon fill="#181818" points="55.5,690.4141,59.5,700.4141,63.5,690.4141,59.5,694.4141" style="stroke:#181818;stroke-width:1.0;"/><line style="stroke:#181818;stroke-width:1.0;" x1="184.25" x2="203" y1="678.4141" y2="678.4141"/><line style="stroke:#181818;stroke-width:1.0;" x1="203" x2="203" y1="678.4141" y2="700.4141"/><polygon fill="#181818" points="199,690.4141,203,700.4141,207,690.4141,203,694.4141" style="stroke:#181818;stroke-width:1.0;"/><line style="stroke:#181818;stroke-width:1.0;" x1="131.25" x2="131.25" y1="646.4141" y2="666.4141"/><polygon fill="#181818" points="127.25,656.4141,131.25,666.4141,135.25,656.4141,131.25,660.4141" style="stroke:#181818;stroke-width:1.0;"/><line style="stroke:#181818;stroke-width:1.0;" x1="200.125" x2="131.25" y1="534.2266" y2="534.2266"/><line style="stroke:#181818;stroke-width:1.0;" x1="131.25" x2="131.25" y1="534.2266" y2="556.2266"/><polygon fill="#181818" points="127.25,546.2266,131.25,556.2266,135.25,546.2266,131.25,550.2266" style="stroke:#181818;stroke-width:1.0;"/><line style="stroke:#181818;stroke-width:1.0;" x1="290.125" x2="359" y1="534.2266" y2="534.2266"/><line style="stroke:#181818;stroke-width:1.0;" x1="359" x2="359" y1="534.2266" y2="556.2266"/><polygon fill="#181818" points="355,546.2266,359,556.2266,363,546.2266,359,550.2266" style="stroke:#181818;stroke-width:1.0;"/><line style="stroke:#181818;stroke-width:1.0;" x1="245.125" x2="245.125" y1="502.2266" y2="522.2266"/><polygon fill="#181818" points="241.125,512.2266,245.125,522.2266,249.125,512.2266,245.125,516.2266" style="stroke:#181818;stroke-width:1.0;"/><line style="stroke:#181818;stroke-width:1.0;" x1="318.5625" x2="245.125" y1="390.0391" y2="390.0391"/><line style="stroke:#181818;stroke-width:1.0;" x1="245.125" x2="245.125" y1="390.0391" y2="412.0391"/><polygon fill="#181818" points="241.125,402.0391,245.125,412.0391,249.125,402.0391,245.125,406.0391" style="stroke:#181818;stroke-width:1.0;"/><line style="stroke:#181818;stroke-width:1.0;" x1="437.5625" x2="511" y1="390.0391" y2="390.0391"/><line style="stroke:#181818;stroke-width:1.0;" x1="511" x2="511" y1="390.0391" y2="412.0391"/><polygon fill="#181818" points="507,402.0391,511,412.0391,515,402.0391,511,406.0391" style="stroke:#181818;stroke-width:1.0;"/><line style="stroke:#181818;stroke-width:1.0;" x1="378.0625" x2="378.0625" y1="358.0391" y2="378.0391"/><polygon fill="#181818" points="374.0625,368.0391,378.0625,378.0391,382.0625,368.0391,378.0625,372.0391" style="stroke:#181818;stroke-width:1.0;"/><!--SRC=[RP9DRkCm38NtFWLNWwJ0N21P546JAG8qXL5d3g18T2n45WsH3khR3-MVJZeOm1izydryeYnU0i8Ukq13Yr6WR0mZ_8IT5N_tCi3UcsioRL6mc2H5iIaJTYOXb8bShrqKuH3lFb7CW6qHIH2IlpPI03n1XUcE2HYbxqPXRyHSyX1BiVRNkSdsAK-RsZ0wo1YTTemwDuGSKLMCrYDlLPyYmwxhWhTcJF43Jczm8eSXDxoCz5w3Vakd-J7Lb5geMheXd975nwiMV0shlnf3QPYVro0DHbWDo6jDgj_c4Cr5TxOhZqfs7VaeccYgBUpVk_CiPQgUHXgwVtbZY_fU2Txy7RSFqecY5qfG3IpOFbGoyP0I9TQb25hv7rO17nJ2nTYRxkMN_zpEiaCnjXaF6FGHLf6-70-_GTLRYynr7nRZvft4rmDKOcxOK72OUAcnK3SXe_Fr4lKxVwCXybxWoDpZRFrAinYBHzDecThr4X_endpPEVicrny0]--></g></svg>