<?xml version="1.0" encoding="us-ascii" standalone="no"?><svg xmlns="http://www.w3.org/2000/svg" xmlns:xlink="http://www.w3.org/1999/xlink" contentStyleType="text/css" height="1119px" preserveAspectRatio="none" style="width:486px;height:1119px;background:#FFFFFF;" version="1.1" viewBox="0 0 486 1119" width="486px" zoomAndPan="magnify"><defs/><g><text fill="#000000" font-family="sans-serif" font-size="14" font-weight="bold" lengthAdjust="spacing" textLength="385" x="43.75" y="24.5332">Fake News Detection System - Complete Class Diagram</text><!--class NewsArticle--><g id="elem_NewsArticle"><rect codeLine="12" fill="#FFFFE0" height="100.8281" id="NewsArticle" rx="2.5" ry="2.5" style="stroke:#000080;stroke-width:0.5;" width="122" x="30" y="188.6094"/><ellipse cx="53.1" cy="204.6094" fill="#ADD1B2" rx="11" ry="11" style="stroke:#181818;stroke-width:1.0;"/><path d="M55.8656,200.4844 Q56.0219,200.2656 56.2094,200.1563 Q56.3969,200.0469 56.6156,200.0469 Q56.9906,200.0469 57.225,200.3125 Q57.4594,200.5625 57.4594,201.1719 L57.4594,202.625 Q57.4594,203.2344 57.225,203.5 Q56.9906,203.7656 56.6156,203.7656 Q56.2719,203.7656 56.0688,203.5625 Q55.8656,203.375 55.7563,202.8594 Q55.7094,202.5 55.5219,202.3125 Q55.1938,201.9375 54.5844,201.7188 Q53.975,201.5 53.35,201.5 Q52.5844,201.5 51.9438,201.8281 Q51.3188,202.1563 50.8188,202.9063 Q50.3344,203.6563 50.3344,204.6875 L50.3344,205.7813 Q50.3344,207.0156 51.225,207.8438 Q52.1156,208.6563 53.7094,208.6563 Q54.6469,208.6563 55.3031,208.4063 Q55.6938,208.25 56.1156,207.8125 Q56.3813,207.5469 56.5219,207.4688 Q56.6781,207.3906 56.8813,207.3906 Q57.2094,207.3906 57.4594,207.6563 Q57.725,207.9063 57.725,208.25 Q57.725,208.5938 57.3813,209 Q56.8813,209.5781 56.0844,209.9063 Q55.0063,210.3594 53.7094,210.3594 Q52.1938,210.3594 50.9906,209.7344 Q50.0063,209.2344 49.3188,208.1719 Q48.6313,207.0938 48.6313,205.8125 L48.6313,204.6563 Q48.6313,203.3281 49.2406,202.1875 Q49.8656,201.0313 50.9594,200.4219 Q52.0531,199.7969 53.2875,199.7969 Q54.0219,199.7969 54.6625,199.9688 Q55.3188,200.125 55.8656,200.4844 Z " fill="#000000"/><text fill="#000000" font-family="sans-serif" font-size="14" lengthAdjust="spacing" textLength="72" x="68.9" y="210.3379">NewsArticle</text><line style="stroke:#000080;stroke-width:0.5;" x1="31" x2="151" y1="220.6094" y2="220.6094"/><text fill="#000000" font-family="sans-serif" font-size="14" lengthAdjust="spacing" textLength="72" x="36" y="239.1426">-text: String</text><text fill="#000000" font-family="sans-serif" font-size="14" lengthAdjust="spacing" textLength="72" x="36" y="256.752">-title: String</text><line style="stroke:#000080;stroke-width:0.5;" x1="31" x2="151" y1="263.8281" y2="263.8281"/><text fill="#000000" font-family="sans-serif" font-size="14" lengthAdjust="spacing" textLength="110" x="36" y="282.3613">+getText(): String</text></g><!--class Dataset--><g id="elem_Dataset"><rect codeLine="18" fill="#FFFFE0" height="100.8281" id="Dataset" rx="2.5" ry="2.5" style="stroke:#000080;stroke-width:0.5;" width="124" x="225" y="510.6094"/><ellipse cx="259.35" cy="526.6094" fill="#ADD1B2" rx="11" ry="11" style="stroke:#181818;stroke-width:1.0;"/><path d="M262.1156,522.4844 Q262.2719,522.2656 262.4594,522.1563 Q262.6469,522.0469 262.8656,522.0469 Q263.2406,522.0469 263.475,522.3125 Q263.7094,522.5625 263.7094,523.1719 L263.7094,524.625 Q263.7094,525.2344 263.475,525.5 Q263.2406,525.7656 262.8656,525.7656 Q262.5219,525.7656 262.3188,525.5625 Q262.1156,525.375 262.0063,524.8594 Q261.9594,524.5 261.7719,524.3125 Q261.4438,523.9375 260.8344,523.7188 Q260.225,523.5 259.6,523.5 Q258.8344,523.5 258.1938,523.8281 Q257.5688,524.1563 257.0688,524.9063 Q256.5844,525.6563 256.5844,526.6875 L256.5844,527.7813 Q256.5844,529.0156 257.475,529.8438 Q258.3656,530.6563 259.9594,530.6563 Q260.8969,530.6563 261.5531,530.4063 Q261.9438,530.25 262.3656,529.8125 Q262.6313,529.5469 262.7719,529.4688 Q262.9281,529.3906 263.1313,529.3906 Q263.4594,529.3906 263.7094,529.6563 Q263.975,529.9063 263.975,530.25 Q263.975,530.5938 263.6313,531 Q263.1313,531.5781 262.3344,531.9063 Q261.2563,532.3594 259.9594,532.3594 Q258.4438,532.3594 257.2406,531.7344 Q256.2563,531.2344 255.5688,530.1719 Q254.8813,529.0938 254.8813,527.8125 L254.8813,526.6563 Q254.8813,525.3281 255.4906,524.1875 Q256.1156,523.0313 257.2094,522.4219 Q258.3031,521.7969 259.5375,521.7969 Q260.2719,521.7969 260.9125,521.9688 Q261.5688,522.125 262.1156,522.4844 Z " fill="#000000"/><text fill="#000000" font-family="sans-serif" font-size="14" lengthAdjust="spacing" textLength="49" x="277.65" y="532.3379">Dataset</text><line style="stroke:#000080;stroke-width:0.5;" x1="226" x2="348" y1="542.6094" y2="542.6094"/><text fill="#000000" font-family="sans-serif" font-size="14" lengthAdjust="spacing" textLength="112" x="231" y="561.1426">-data: DataFrame</text><line style="stroke:#000080;stroke-width:0.5;" x1="226" x2="348" y1="568.2188" y2="568.2188"/><text fill="#000000" font-family="sans-serif" font-size="14" lengthAdjust="spacing" textLength="109" x="231" y="586.752">+loadData(): void</text><text fill="#000000" font-family="sans-serif" font-size="14" lengthAdjust="spacing" textLength="107" x="231" y="604.3613">+splitData(): void</text></g><!--class TextPreprocessor--><g id="elem_TextPreprocessor"><rect codeLine="25" fill="#FFFFE0" height="100.8281" id="TextPreprocessor" rx="2.5" ry="2.5" style="stroke:#000080;stroke-width:0.5;" width="188" x="7" y="349.6094"/><ellipse cx="41.8" cy="365.6094" fill="#ADD1B2" rx="11" ry="11" style="stroke:#181818;stroke-width:1.0;"/><path d="M44.5656,361.4844 Q44.7219,361.2656 44.9094,361.1563 Q45.0969,361.0469 45.3156,361.0469 Q45.6906,361.0469 45.925,361.3125 Q46.1594,361.5625 46.1594,362.1719 L46.1594,363.625 Q46.1594,364.2344 45.925,364.5 Q45.6906,364.7656 45.3156,364.7656 Q44.9719,364.7656 44.7688,364.5625 Q44.5656,364.375 44.4563,363.8594 Q44.4094,363.5 44.2219,363.3125 Q43.8938,362.9375 43.2844,362.7188 Q42.675,362.5 42.05,362.5 Q41.2844,362.5 40.6438,362.8281 Q40.0188,363.1563 39.5188,363.9063 Q39.0344,364.6563 39.0344,365.6875 L39.0344,366.7813 Q39.0344,368.0156 39.925,368.8438 Q40.8156,369.6563 42.4094,369.6563 Q43.3469,369.6563 44.0031,369.4063 Q44.3938,369.25 44.8156,368.8125 Q45.0813,368.5469 45.2219,368.4688 Q45.3781,368.3906 45.5813,368.3906 Q45.9094,368.3906 46.1594,368.6563 Q46.425,368.9063 46.425,369.25 Q46.425,369.5938 46.0813,370 Q45.5813,370.5781 44.7844,370.9063 Q43.7063,371.3594 42.4094,371.3594 Q40.8938,371.3594 39.6906,370.7344 Q38.7063,370.2344 38.0188,369.1719 Q37.3313,368.0938 37.3313,366.8125 L37.3313,365.6563 Q37.3313,364.3281 37.9406,363.1875 Q38.5656,362.0313 39.6594,361.4219 Q40.7531,360.7969 41.9875,360.7969 Q42.7219,360.7969 43.3625,360.9688 Q44.0188,361.125 44.5656,361.4844 Z " fill="#000000"/><text fill="#000000" font-family="sans-serif" font-size="14" lengthAdjust="spacing" textLength="112" x="60.2" y="371.3379">TextPreprocessor</text><line style="stroke:#000080;stroke-width:0.5;" x1="8" x2="194" y1="381.6094" y2="381.6094"/><line style="stroke:#000080;stroke-width:0.5;" x1="8" x2="194" y1="389.6094" y2="389.6094"/><text fill="#000000" font-family="sans-serif" font-size="14" lengthAdjust="spacing" textLength="119" x="13" y="408.1426">+clean(text): String</text><text fill="#000000" font-family="sans-serif" font-size="14" lengthAdjust="spacing" textLength="176" x="13" y="425.752">+removeStopwords(): String</text><text fill="#000000" font-family="sans-serif" font-size="14" lengthAdjust="spacing" textLength="100" x="13" y="443.3613">+tokenize(): List</text></g><!--class FeatureExtractor--><g id="elem_FeatureExtractor"><rect codeLine="31" fill="#FFFFE0" height="100.8281" id="FeatureExtractor" rx="2.5" ry="2.5" style="stroke:#000080;stroke-width:0.5;" width="177" x="12.5" y="510.6094"/><ellipse cx="45.05" cy="526.6094" fill="#ADD1B2" rx="11" ry="11" style="stroke:#181818;stroke-width:1.0;"/><path d="M47.8156,522.4844 Q47.9719,522.2656 48.1594,522.1563 Q48.3469,522.0469 48.5656,522.0469 Q48.9406,522.0469 49.175,522.3125 Q49.4094,522.5625 49.4094,523.1719 L49.4094,524.625 Q49.4094,525.2344 49.175,525.5 Q48.9406,525.7656 48.5656,525.7656 Q48.2219,525.7656 48.0188,525.5625 Q47.8156,525.375 47.7063,524.8594 Q47.6594,524.5 47.4719,524.3125 Q47.1438,523.9375 46.5344,523.7188 Q45.925,523.5 45.3,523.5 Q44.5344,523.5 43.8938,523.8281 Q43.2688,524.1563 42.7688,524.9063 Q42.2844,525.6563 42.2844,526.6875 L42.2844,527.7813 Q42.2844,529.0156 43.175,529.8438 Q44.0656,530.6563 45.6594,530.6563 Q46.5969,530.6563 47.2531,530.4063 Q47.6438,530.25 48.0656,529.8125 Q48.3313,529.5469 48.4719,529.4688 Q48.6281,529.3906 48.8313,529.3906 Q49.1594,529.3906 49.4094,529.6563 Q49.675,529.9063 49.675,530.25 Q49.675,530.5938 49.3313,531 Q48.8313,531.5781 48.0344,531.9063 Q46.9563,532.3594 45.6594,532.3594 Q44.1438,532.3594 42.9406,531.7344 Q41.9563,531.2344 41.2688,530.1719 Q40.5813,529.0938 40.5813,527.8125 L40.5813,526.6563 Q40.5813,525.3281 41.1906,524.1875 Q41.8156,523.0313 42.9094,522.4219 Q44.0031,521.7969 45.2375,521.7969 Q45.9719,521.7969 46.6125,521.9688 Q47.2688,522.125 47.8156,522.4844 Z " fill="#000000"/><text fill="#000000" font-family="sans-serif" font-size="14" lengthAdjust="spacing" textLength="106" x="62.95" y="532.3379">FeatureExtractor</text><line style="stroke:#000080;stroke-width:0.5;" x1="13.5" x2="188.5" y1="542.6094" y2="542.6094"/><text fill="#000000" font-family="sans-serif" font-size="14" lengthAdjust="spacing" textLength="165" x="18.5" y="561.1426">-vectorizer: TfidfVectorizer</text><line style="stroke:#000080;stroke-width:0.5;" x1="13.5" x2="188.5" y1="568.2188" y2="568.2188"/><text fill="#000000" font-family="sans-serif" font-size="14" lengthAdjust="spacing" textLength="142" x="18.5" y="586.752">+transform(text): Array</text><text fill="#000000" font-family="sans-serif" font-size="14" lengthAdjust="spacing" textLength="145" x="18.5" y="604.3613">+saveVectorizer(): void</text></g><!--class ModelTrainer--><g id="elem_ModelTrainer"><rect codeLine="38" fill="#FFFFE0" height="100.8281" id="ModelTrainer" rx="2.5" ry="2.5" style="stroke:#000080;stroke-width:0.5;" width="120" x="195" y="671.6094"/><ellipse cx="211.8" cy="687.6094" fill="#ADD1B2" rx="11" ry="11" style="stroke:#181818;stroke-width:1.0;"/><path d="M214.5656,683.4844 Q214.7219,683.2656 214.9094,683.1563 Q215.0969,683.0469 215.3156,683.0469 Q215.6906,683.0469 215.925,683.3125 Q216.1594,683.5625 216.1594,684.1719 L216.1594,685.625 Q216.1594,686.2344 215.925,686.5 Q215.6906,686.7656 215.3156,686.7656 Q214.9719,686.7656 214.7688,686.5625 Q214.5656,686.375 214.4563,685.8594 Q214.4094,685.5 214.2219,685.3125 Q213.8938,684.9375 213.2844,684.7188 Q212.675,684.5 212.05,684.5 Q211.2844,684.5 210.6438,684.8281 Q210.0188,685.1563 209.5188,685.9063 Q209.0344,686.6563 209.0344,687.6875 L209.0344,688.7813 Q209.0344,690.0156 209.925,690.8438 Q210.8156,691.6563 212.4094,691.6563 Q213.3469,691.6563 214.0031,691.4063 Q214.3938,691.25 214.8156,690.8125 Q215.0813,690.5469 215.2219,690.4688 Q215.3781,690.3906 215.5813,690.3906 Q215.9094,690.3906 216.1594,690.6563 Q216.425,690.9063 216.425,691.25 Q216.425,691.5938 216.0813,692 Q215.5813,692.5781 214.7844,692.9063 Q213.7063,693.3594 212.4094,693.3594 Q210.8938,693.3594 209.6906,692.7344 Q208.7063,692.2344 208.0188,691.1719 Q207.3313,690.0938 207.3313,688.8125 L207.3313,687.6563 Q207.3313,686.3281 207.9406,685.1875 Q208.5656,684.0313 209.6594,683.4219 Q210.7531,682.7969 211.9875,682.7969 Q212.7219,682.7969 213.3625,682.9688 Q214.0188,683.125 214.5656,683.4844 Z " fill="#000000"/><text fill="#000000" font-family="sans-serif" font-size="14" lengthAdjust="spacing" textLength="84" x="226.2" y="693.3379">ModelTrainer</text><line style="stroke:#000080;stroke-width:0.5;" x1="196" x2="314" y1="703.6094" y2="703.6094"/><text fill="#000000" font-family="sans-serif" font-size="14" lengthAdjust="spacing" textLength="108" x="201" y="722.1426">-model: MLModel</text><line style="stroke:#000080;stroke-width:0.5;" x1="196" x2="314" y1="729.2188" y2="729.2188"/><text fill="#000000" font-family="sans-serif" font-size="14" lengthAdjust="spacing" textLength="103" x="201" y="747.752">+train(X, y): void</text><text fill="#000000" font-family="sans-serif" font-size="14" lengthAdjust="spacing" textLength="107" x="201" y="765.3613">+evaluate(): float</text></g><!--class FakeNewsClassifier--><g id="elem_FakeNewsClassifier"><rect codeLine="44" fill="#FFFFE0" height="100.8281" id="FakeNewsClassifier" rx="2.5" ry="2.5" style="stroke:#000080;stroke-width:0.5;" width="155" x="324.5" y="832.6094"/><ellipse cx="339.5" cy="848.6094" fill="#ADD1B2" rx="11" ry="11" style="stroke:#181818;stroke-width:1.0;"/><path d="M342.2656,844.4844 Q342.4219,844.2656 342.6094,844.1563 Q342.7969,844.0469 343.0156,844.0469 Q343.3906,844.0469 343.625,844.3125 Q343.8594,844.5625 343.8594,845.1719 L343.8594,846.625 Q343.8594,847.2344 343.625,847.5 Q343.3906,847.7656 343.0156,847.7656 Q342.6719,847.7656 342.4688,847.5625 Q342.2656,847.375 342.1563,846.8594 Q342.1094,846.5 341.9219,846.3125 Q341.5938,845.9375 340.9844,845.7188 Q340.375,845.5 339.75,845.5 Q338.9844,845.5 338.3438,845.8281 Q337.7188,846.1563 337.2188,846.9063 Q336.7344,847.6563 336.7344,848.6875 L336.7344,849.7813 Q336.7344,851.0156 337.625,851.8438 Q338.5156,852.6563 340.1094,852.6563 Q341.0469,852.6563 341.7031,852.4063 Q342.0938,852.25 342.5156,851.8125 Q342.7813,851.5469 342.9219,851.4688 Q343.0781,851.3906 343.2813,851.3906 Q343.6094,851.3906 343.8594,851.6563 Q344.125,851.9063 344.125,852.25 Q344.125,852.5938 343.7813,853 Q343.2813,853.5781 342.4844,853.9063 Q341.4063,854.3594 340.1094,854.3594 Q338.5938,854.3594 337.3906,853.7344 Q336.4063,853.2344 335.7188,852.1719 Q335.0313,851.0938 335.0313,849.8125 L335.0313,848.6563 Q335.0313,847.3281 335.6406,846.1875 Q336.2656,845.0313 337.3594,844.4219 Q338.4531,843.7969 339.6875,843.7969 Q340.4219,843.7969 341.0625,843.9688 Q341.7188,844.125 342.2656,844.4844 Z " fill="#000000"/><text fill="#000000" font-family="sans-serif" font-size="14" lengthAdjust="spacing" textLength="123" x="353.5" y="854.3379">FakeNewsClassifier</text><line style="stroke:#000080;stroke-width:0.5;" x1="325.5" x2="478.5" y1="864.6094" y2="864.6094"/><text fill="#000000" font-family="sans-serif" font-size="14" lengthAdjust="spacing" textLength="108" x="330.5" y="883.1426">-model: MLModel</text><line style="stroke:#000080;stroke-width:0.5;" x1="325.5" x2="478.5" y1="890.2188" y2="890.2188"/><text fill="#000000" font-family="sans-serif" font-size="14" lengthAdjust="spacing" textLength="136" x="330.5" y="908.752">+predict(features): int</text><text fill="#000000" font-family="sans-serif" font-size="14" lengthAdjust="spacing" textLength="139" x="330.5" y="926.3613">+getProbability(): float</text></g><!--class ModelEvaluator--><g id="elem_ModelEvaluator"><rect codeLine="51" fill="#FFFFE0" height="100.8281" id="ModelEvaluator" rx="2.5" ry="2.5" style="stroke:#000080;stroke-width:0.5;" width="130" x="159" y="832.6094"/><ellipse cx="174" cy="848.6094" fill="#ADD1B2" rx="11" ry="11" style="stroke:#181818;stroke-width:1.0;"/><path d="M176.7656,844.4844 Q176.9219,844.2656 177.1094,844.1563 Q177.2969,844.0469 177.5156,844.0469 Q177.8906,844.0469 178.125,844.3125 Q178.3594,844.5625 178.3594,845.1719 L178.3594,846.625 Q178.3594,847.2344 178.125,847.5 Q177.8906,847.7656 177.5156,847.7656 Q177.1719,847.7656 176.9688,847.5625 Q176.7656,847.375 176.6563,846.8594 Q176.6094,846.5 176.4219,846.3125 Q176.0938,845.9375 175.4844,845.7188 Q174.875,845.5 174.25,845.5 Q173.4844,845.5 172.8438,845.8281 Q172.2188,846.1563 171.7188,846.9063 Q171.2344,847.6563 171.2344,848.6875 L171.2344,849.7813 Q171.2344,851.0156 172.125,851.8438 Q173.0156,852.6563 174.6094,852.6563 Q175.5469,852.6563 176.2031,852.4063 Q176.5938,852.25 177.0156,851.8125 Q177.2813,851.5469 177.4219,851.4688 Q177.5781,851.3906 177.7813,851.3906 Q178.1094,851.3906 178.3594,851.6563 Q178.625,851.9063 178.625,852.25 Q178.625,852.5938 178.2813,853 Q177.7813,853.5781 176.9844,853.9063 Q175.9063,854.3594 174.6094,854.3594 Q173.0938,854.3594 171.8906,853.7344 Q170.9063,853.2344 170.2188,852.1719 Q169.5313,851.0938 169.5313,849.8125 L169.5313,848.6563 Q169.5313,847.3281 170.1406,846.1875 Q170.7656,845.0313 171.8594,844.4219 Q172.9531,843.7969 174.1875,843.7969 Q174.9219,843.7969 175.5625,843.9688 Q176.2188,844.125 176.7656,844.4844 Z " fill="#000000"/><text fill="#000000" font-family="sans-serif" font-size="14" lengthAdjust="spacing" textLength="98" x="188" y="854.3379">ModelEvaluator</text><line style="stroke:#000080;stroke-width:0.5;" x1="160" x2="288" y1="864.6094" y2="864.6094"/><line style="stroke:#000080;stroke-width:0.5;" x1="160" x2="288" y1="872.6094" y2="872.6094"/><text fill="#000000" font-family="sans-serif" font-size="14" lengthAdjust="spacing" textLength="110" x="165" y="891.1426">+accuracy(): float</text><text fill="#000000" font-family="sans-serif" font-size="14" lengthAdjust="spacing" textLength="110" x="165" y="908.752">+precision(): float</text><text fill="#000000" font-family="sans-serif" font-size="14" lengthAdjust="spacing" textLength="102" x="165" y="926.3613">+f1Score(): float</text></g><!--class PredictionResult--><g id="elem_PredictionResult"><rect codeLine="58" fill="#FFFFE0" height="118.4375" id="PredictionResult" rx="2.5" ry="2.5" style="stroke:#000080;stroke-width:0.5;" width="135" x="334.5" y="993.6094"/><ellipse cx="349.5" cy="1009.6094" fill="#ADD1B2" rx="11" ry="11" style="stroke:#181818;stroke-width:1.0;"/><path d="M352.2656,1005.4844 Q352.4219,1005.2656 352.6094,1005.1563 Q352.7969,1005.0469 353.0156,1005.0469 Q353.3906,1005.0469 353.625,1005.3125 Q353.8594,1005.5625 353.8594,1006.1719 L353.8594,1007.625 Q353.8594,1008.2344 353.625,1008.5 Q353.3906,1008.7656 353.0156,1008.7656 Q352.6719,1008.7656 352.4688,1008.5625 Q352.2656,1008.375 352.1563,1007.8594 Q352.1094,1007.5 351.9219,1007.3125 Q351.5938,1006.9375 350.9844,1006.7188 Q350.375,1006.5 349.75,1006.5 Q348.9844,1006.5 348.3438,1006.8281 Q347.7188,1007.1563 347.2188,1007.9063 Q346.7344,1008.6563 346.7344,1009.6875 L346.7344,1010.7813 Q346.7344,1012.0156 347.625,1012.8438 Q348.5156,1013.6563 350.1094,1013.6563 Q351.0469,1013.6563 351.7031,1013.4063 Q352.0938,1013.25 352.5156,1012.8125 Q352.7813,1012.5469 352.9219,1012.4688 Q353.0781,1012.3906 353.2813,1012.3906 Q353.6094,1012.3906 353.8594,1012.6563 Q354.125,1012.9063 354.125,1013.25 Q354.125,1013.5938 353.7813,1014 Q353.2813,1014.5781 352.4844,1014.9063 Q351.4063,1015.3594 350.1094,1015.3594 Q348.5938,1015.3594 347.3906,1014.7344 Q346.4063,1014.2344 345.7188,1013.1719 Q345.0313,1012.0938 345.0313,1010.8125 L345.0313,1009.6563 Q345.0313,1008.3281 345.6406,1007.1875 Q346.2656,1006.0313 347.3594,1005.4219 Q348.4531,1004.7969 349.6875,1004.7969 Q350.4219,1004.7969 351.0625,1004.9688 Q351.7188,1005.125 352.2656,1005.4844 Z " fill="#000000"/><text fill="#000000" font-family="sans-serif" font-size="14" lengthAdjust="spacing" textLength="103" x="363.5" y="1015.3379">PredictionResult</text><line style="stroke:#000080;stroke-width:0.5;" x1="335.5" x2="468.5" y1="1025.6094" y2="1025.6094"/><text fill="#000000" font-family="sans-serif" font-size="14" lengthAdjust="spacing" textLength="80" x="340.5" y="1044.1426">-label: String</text><text fill="#000000" font-family="sans-serif" font-size="14" lengthAdjust="spacing" textLength="109" x="340.5" y="1061.752">-confidence: float</text><text fill="#000000" font-family="sans-serif" font-size="14" lengthAdjust="spacing" textLength="103" x="340.5" y="1079.3613">-isReal: boolean</text><line style="stroke:#000080;stroke-width:0.5;" x1="335.5" x2="468.5" y1="1086.4375" y2="1086.4375"/><text fill="#000000" font-family="sans-serif" font-size="14" lengthAdjust="spacing" textLength="118" x="340.5" y="1104.9707">+getLabel(): String</text></g><!--class APIController--><g id="elem_APIController"><rect codeLine="66" fill="#FFFFE0" height="83.2188" id="APIController" rx="2.5" ry="2.5" style="stroke:#000080;stroke-width:0.5;" width="198" x="160" y="45.6094"/><ellipse cx="213.25" cy="61.6094" fill="#ADD1B2" rx="11" ry="11" style="stroke:#181818;stroke-width:1.0;"/><path d="M216.0156,57.4844 Q216.1719,57.2656 216.3594,57.1563 Q216.5469,57.0469 216.7656,57.0469 Q217.1406,57.0469 217.375,57.3125 Q217.6094,57.5625 217.6094,58.1719 L217.6094,59.625 Q217.6094,60.2344 217.375,60.5 Q217.1406,60.7656 216.7656,60.7656 Q216.4219,60.7656 216.2188,60.5625 Q216.0156,60.375 215.9063,59.8594 Q215.8594,59.5 215.6719,59.3125 Q215.3438,58.9375 214.7344,58.7188 Q214.125,58.5 213.5,58.5 Q212.7344,58.5 212.0938,58.8281 Q211.4688,59.1563 210.9688,59.9063 Q210.4844,60.6563 210.4844,61.6875 L210.4844,62.7813 Q210.4844,64.0156 211.375,64.8438 Q212.2656,65.6563 213.8594,65.6563 Q214.7969,65.6563 215.4531,65.4063 Q215.8438,65.25 216.2656,64.8125 Q216.5313,64.5469 216.6719,64.4688 Q216.8281,64.3906 217.0313,64.3906 Q217.3594,64.3906 217.6094,64.6563 Q217.875,64.9063 217.875,65.25 Q217.875,65.5938 217.5313,66 Q217.0313,66.5781 216.2344,66.9063 Q215.1563,67.3594 213.8594,67.3594 Q212.3438,67.3594 211.1406,66.7344 Q210.1563,66.2344 209.4688,65.1719 Q208.7813,64.0938 208.7813,62.8125 L208.7813,61.6563 Q208.7813,60.3281 209.3906,59.1875 Q210.0156,58.0313 211.1094,57.4219 Q212.2031,56.7969 213.4375,56.7969 Q214.1719,56.7969 214.8125,56.9688 Q215.4688,57.125 216.0156,57.4844 Z " fill="#000000"/><text fill="#000000" font-family="sans-serif" font-size="14" lengthAdjust="spacing" textLength="83" x="233.75" y="67.3379">APIController</text><line style="stroke:#000080;stroke-width:0.5;" x1="161" x2="357" y1="77.6094" y2="77.6094"/><line style="stroke:#000080;stroke-width:0.5;" x1="161" x2="357" y1="85.6094" y2="85.6094"/><text fill="#000000" font-family="sans-serif" font-size="14" lengthAdjust="spacing" textLength="186" x="166" y="104.1426">+handleRequest(): Response</text><text fill="#000000" font-family="sans-serif" font-size="14" lengthAdjust="spacing" textLength="157" x="166" y="121.752">+validateInput(): boolean</text></g><!--class PredictionService--><g id="elem_PredictionService"><rect codeLine="71" fill="#FFFFE0" height="65.6094" id="PredictionService" rx="2.5" ry="2.5" style="stroke:#000080;stroke-width:0.5;" width="143" x="187.5" y="206.1094"/><ellipse cx="202.95" cy="222.1094" fill="#ADD1B2" rx="11" ry="11" style="stroke:#181818;stroke-width:1.0;"/><path d="M205.7156,217.9844 Q205.8719,217.7656 206.0594,217.6563 Q206.2469,217.5469 206.4656,217.5469 Q206.8406,217.5469 207.075,217.8125 Q207.3094,218.0625 207.3094,218.6719 L207.3094,220.125 Q207.3094,220.7344 207.075,221 Q206.8406,221.2656 206.4656,221.2656 Q206.1219,221.2656 205.9188,221.0625 Q205.7156,220.875 205.6063,220.3594 Q205.5594,220 205.3719,219.8125 Q205.0438,219.4375 204.4344,219.2188 Q203.825,219 203.2,219 Q202.4344,219 201.7938,219.3281 Q201.1688,219.6563 200.6688,220.4063 Q200.1844,221.1563 200.1844,222.1875 L200.1844,223.2813 Q200.1844,224.5156 201.075,225.3438 Q201.9656,226.1563 203.5594,226.1563 Q204.4969,226.1563 205.1531,225.9063 Q205.5438,225.75 205.9656,225.3125 Q206.2313,225.0469 206.3719,224.9688 Q206.5281,224.8906 206.7313,224.8906 Q207.0594,224.8906 207.3094,225.1563 Q207.575,225.4063 207.575,225.75 Q207.575,226.0938 207.2313,226.5 Q206.7313,227.0781 205.9344,227.4063 Q204.8563,227.8594 203.5594,227.8594 Q202.0438,227.8594 200.8406,227.2344 Q199.8563,226.7344 199.1688,225.6719 Q198.4813,224.5938 198.4813,223.3125 L198.4813,222.1563 Q198.4813,220.8281 199.0906,219.6875 Q199.7156,218.5313 200.8094,217.9219 Q201.9031,217.2969 203.1375,217.2969 Q203.8719,217.2969 204.5125,217.4688 Q205.1688,217.625 205.7156,217.9844 Z " fill="#000000"/><text fill="#000000" font-family="sans-serif" font-size="14" lengthAdjust="spacing" textLength="110" x="217.05" y="227.8379">PredictionService</text><line style="stroke:#000080;stroke-width:0.5;" x1="188.5" x2="329.5" y1="238.1094" y2="238.1094"/><line style="stroke:#000080;stroke-width:0.5;" x1="188.5" x2="329.5" y1="246.1094" y2="246.1094"/><text fill="#000000" font-family="sans-serif" font-size="14" lengthAdjust="spacing" textLength="131" x="193.5" y="264.6426">+predict(text): Result</text></g><!--link NewsArticle to TextPreprocessor--><g id="link_NewsArticle_TextPreprocessor"><path codeLine="76" d="M94.14,289.9794 C95.33,308.9294 96.3034,324.5012 97.4934,343.4212 " fill="none" id="NewsArticle-to-TextPreprocessor" style="stroke:#000000;stroke-width:1.0;"/><polygon fill="#000000" points="97.87,349.4094,101.2972,340.176,97.5561,344.4192,93.3129,340.6782,97.87,349.4094" style="stroke:#000000;stroke-width:1.0;"/></g><!--link Dataset to ModelTrainer--><g id="link_Dataset_ModelTrainer"><path codeLine="77" d="M276.96,611.9794 C273.15,630.9294 269.9945,646.6075 266.1845,665.5275 " fill="none" id="Dataset-to-ModelTrainer" style="stroke:#000000;stroke-width:1.0;"/><polygon fill="#000000" points="265,671.4094,270.698,663.3761,265.9871,666.5078,262.8554,661.7968,265,671.4094" style="stroke:#000000;stroke-width:1.0;"/></g><!--link TextPreprocessor to FeatureExtractor--><g id="link_TextPreprocessor_FeatureExtractor"><path codeLine="79" d="M101,450.9794 C101,469.9294 101,485.4894 101,504.4094 " fill="none" id="TextPreprocessor-to-FeatureExtractor" style="stroke:#000000;stroke-width:1.0;"/><polygon fill="#000000" points="101,510.4094,105,501.4094,101,505.4094,97,501.4094,101,510.4094" style="stroke:#000000;stroke-width:1.0;"/></g><!--link FeatureExtractor to ModelTrainer--><g id="link_FeatureExtractor_ModelTrainer"><path codeLine="80" d="M149.3,611.9794 C167.65,630.9294 184.3651,648.1801 202.6951,667.1001 " fill="none" id="FeatureExtractor-to-ModelTrainer" style="stroke:#000000;stroke-width:1.0;"/><polygon fill="#000000" points="206.87,671.4094,203.4805,662.1621,203.3909,667.8183,197.7348,667.7287,206.87,671.4094" style="stroke:#000000;stroke-width:1.0;"/></g><!--link ModelTrainer to FakeNewsClassifier--><g id="link_ModelTrainer_FakeNewsClassifier"><path codeLine="81" d="M301.11,772.9794 C318.62,791.9294 334.4859,809.0847 351.9859,828.0047 " fill="none" id="ModelTrainer-to-FakeNewsClassifier" style="stroke:#000000;stroke-width:1.0;"/><polygon fill="#000000" points="356.06,832.4094,352.8853,823.0862,352.6649,828.7388,347.0123,828.5184,356.06,832.4094" style="stroke:#000000;stroke-width:1.0;"/></g><!--link ModelTrainer to ModelEvaluator--><g id="link_ModelTrainer_ModelEvaluator"><path codeLine="82" d="M245.28,772.9794 C241.58,791.9294 238.5286,807.6003 234.8386,826.5203 " fill="none" id="ModelTrainer-to-ModelEvaluator" style="stroke:#000000;stroke-width:1.0;"/><polygon fill="#000000" points="233.69,832.4094,239.3389,824.3415,234.6471,827.5018,231.4868,822.8101,233.69,832.4094" style="stroke:#000000;stroke-width:1.0;"/></g><!--link APIController to PredictionService--><g id="link_APIController_PredictionService"><path codeLine="84" d="M259,128.6994 C259,152.9994 259,177.4394 259,200.0394 " fill="none" id="APIController-to-PredictionService" style="stroke:#000000;stroke-width:1.0;"/><polygon fill="#000000" points="259,206.0394,263,197.0394,259,201.0394,255,197.0394,259,206.0394" style="stroke:#000000;stroke-width:1.0;"/></g><!--link PredictionService to TextPreprocessor--><g id="link_PredictionService_TextPreprocessor"><path codeLine="85" d="M227.03,272.2894 C205.02,294.4294 179.5991,320.0132 154.5891,345.1832 " fill="none" id="PredictionService-to-TextPreprocessor" style="stroke:#000000;stroke-width:1.0;"/><polygon fill="#000000" points="150.36,349.4394,159.5411,345.8745,153.8842,345.8926,153.8662,340.2358,150.36,349.4394" style="stroke:#000000;stroke-width:1.0;"/></g><!--link PredictionService to FeatureExtractor--><g id="link_PredictionService_FeatureExtractor"><path codeLine="86" d="M257.43,272.4094 C254.12,315.5294 243.85,393.1294 212,450.6094 C199.73,472.7494 185.9637,489.1802 167.9137,506.3802 " fill="none" id="PredictionService-to-FeatureExtractor" style="stroke:#000000;stroke-width:1.0;"/><polygon fill="#000000" points="163.57,510.5194,172.8449,507.2065,167.1897,507.0701,167.3261,501.4149,163.57,510.5194" style="stroke:#000000;stroke-width:1.0;"/></g><!--link PredictionService to FakeNewsClassifier--><g id="link_PredictionService_FakeNewsClassifier"><path codeLine="87" d="M275.25,272.4494 C299.46,322.2294 344.45,421.2594 366,510.6094 C393.23,623.5194 399.8466,754.4509 401.4466,826.4009 " fill="none" id="PredictionService-to-FakeNewsClassifier" style="stroke:#000000;stroke-width:1.0;"/><polygon fill="#000000" points="401.58,832.3994,405.3789,823.3127,401.4688,827.4006,397.3809,823.4905,401.58,832.3994" style="stroke:#000000;stroke-width:1.0;"/></g><!--link FakeNewsClassifier to PredictionResult--><g id="link_FakeNewsClassifier_PredictionResult"><path codeLine="88" d="M402,933.9094 C402,952.6194 402,968.0494 402,987.4494 " fill="none" id="FakeNewsClassifier-to-PredictionResult" style="stroke:#000000;stroke-width:1.0;"/><polygon fill="#000000" points="402,993.4494,406,984.4494,402,988.4494,398,984.4494,402,993.4494" style="stroke:#000000;stroke-width:1.0;"/></g><!--SRC=[VLDDRnen4BtxL_WMeXQflNAeH218aKY4GbIrH-ET1GjZR-tP9JJAV-_OteLrblJeD-Ftvis7tojJ2ISEN6hX_HJHgKsDy22jMQk_mByndwVmDyRvdP3xhRErAMPMMyUNQhl3tw2rFOQeTGMu57aIpOcWgNFsc90xJP_PEsEeK0DVY3tm9pXwFWS4YSeQlZvvX0CVyvazL9fWFelISoMsL0XZDtmkKF2bE85ZgQn0CNMe97664iSSuHKdV4sEp3O1GR27VE5Rm1VA6jsUKQehyGK13zXo5VIQH6n11K3yhAqe0X9-DrOL4VILLfYXxw7SbOFAMGdUaqXMTz2_HAa_Rv67R0Wp2XPkiueT76m3QxJLaRhiHtaKxHuCZIt0I-NnOcS10ci7zw_eXCHMPimR20_wuIRyfLH5-VCC948dZ2-jEtIbq235AJaL3LooSxkFjW2TsOp8YnFAGATz2D24FovZh9DJPlJhAp_rUmgDqBN0wAgahlTjqVQ4oSVzKANw7tdbe50IHsLgXISsPR3RWvMp6x5HDBrJfdF3xvDyMCo1epPs7fkGigO6zoXQPQay4UHm-NqjhOCFSi_WQusPr2fLJWHjC7dKOXCyzZQShfQ624R2HMVCbNy6GOaRQyDMTOwNuNk- -ZTykdh8fEazimQTrHewapjX2WtFyAS67s-7gggiyUaig2EApWKUJ5N7Q2Tx7jh5pXfSeoIqlDs0sbLBNhkcw3W1lrELP_rR7uz_36w8TSSRWltDOsnmRY7but6mmRKCYB9zZXo3JHpcv2l3MDxSa35e3HiswwhZwsa3Ov-a3Mk_SbXvVUrq_W40]--></g></svg>