<?xml version="1.0" encoding="us-ascii" standalone="no"?><svg xmlns="http://www.w3.org/2000/svg" xmlns:xlink="http://www.w3.org/1999/xlink" contentStyleType="text/css" height="637px" preserveAspectRatio="none" style="width:514px;height:637px;background:#FFFFFF;" version="1.1" viewBox="0 0 514 637" width="514px" zoomAndPan="magnify"><defs/><g><text fill="#000000" font-family="sans-serif" font-size="14" font-weight="bold" lengthAdjust="spacing" textLength="112" x="199.75" y="34.5332">Activity Diagram</text><ellipse cx="267.5" cy="58.6094" fill="#222222" rx="10" ry="10" style="stroke:#222222;stroke-width:1.0;"/><rect fill="#F1F1F1" height="35.0938" rx="12.5" ry="12.5" style="stroke:#181818;stroke-width:0.5;" width="157" x="189" y="88.6094"/><text fill="#000000" font-family="sans-serif" font-size="12" lengthAdjust="spacing" textLength="137" x="199" y="111.0664">User Enters News Article</text><rect fill="#F1F1F1" height="35.0938" rx="12.5" ry="12.5" style="stroke:#181818;stroke-width:0.5;" width="94" x="220.5" y="143.7031"/><text fill="#000000" font-family="sans-serif" font-size="12" lengthAdjust="spacing" textLength="74" x="230.5" y="166.1602">Validate Input</text><polygon fill="#F1F1F1" points="252.5,198.7969,282.5,198.7969,294.5,210.7969,282.5,222.7969,252.5,222.7969,240.5,210.7969,252.5,198.7969" style="stroke:#181818;stroke-width:0.5;"/><text fill="#000000" font-family="sans-serif" font-size="11" lengthAdjust="spacing" textLength="30" x="252.5" y="215.2979">Valid?</text><text fill="#000000" font-family="sans-serif" font-size="11" lengthAdjust="spacing" textLength="18" x="222.5" y="208.3799">yes</text><text fill="#000000" font-family="sans-serif" font-size="11" lengthAdjust="spacing" textLength="12" x="294.5" y="208.3799">no</text><path d="M163.5,232.7969 L163.5,250.1484 L143.5,254.1484 L163.5,258.1484 L163.5,275.5 A0,0 0 0 0 163.5,275.5 L358.5,275.5 A0,0 0 0 0 358.5,275.5 L358.5,242.7969 L348.5,232.7969 L163.5,232.7969 A0,0 0 0 0 163.5,232.7969 " fill="#FEFFDD" style="stroke:#181818;stroke-width:0.5;"/><path d="M348.5,232.7969 L348.5,242.7969 L358.5,242.7969 L348.5,232.7969 " fill="#FEFFDD" style="stroke:#181818;stroke-width:0.5;"/><text fill="#000000" font-family="sans-serif" font-size="13" lengthAdjust="spacing" textLength="167" x="169.5" y="251.292">Remove URLs, special chars</text><text fill="#000000" font-family="sans-serif" font-size="13" lengthAdjust="spacing" textLength="174" x="169.5" y="267.6436">Lowercase, remove stopwords</text><rect fill="#F1F1F1" height="35.0938" rx="12.5" ry="12.5" style="stroke:#181818;stroke-width:0.5;" width="109" x="34.5" y="236.6016"/><text fill="#000000" font-family="sans-serif" font-size="12" lengthAdjust="spacing" textLength="89" x="44.5" y="259.0586">Preprocess Text</text><rect fill="#F1F1F1" height="35.0938" rx="12.5" ry="12.5" style="stroke:#181818;stroke-width:0.5;" width="156" x="11" y="295.5"/><text fill="#000000" font-family="sans-serif" font-size="12" lengthAdjust="spacing" textLength="136" x="21" y="317.957">Extract Features (TF-IDF)</text><rect fill="#F1F1F1" height="35.0938" rx="12.5" ry="12.5" style="stroke:#181818;stroke-width:0.5;" width="103" x="37.5" y="350.5938"/><text fill="#000000" font-family="sans-serif" font-size="12" lengthAdjust="spacing" textLength="83" x="47.5" y="373.0508">Load ML Model</text><rect fill="#F1F1F1" height="35.0938" rx="12.5" ry="12.5" style="stroke:#181818;stroke-width:0.5;" width="136" x="21" y="405.6875"/><text fill="#000000" font-family="sans-serif" font-size="12" lengthAdjust="spacing" textLength="116" x="31" y="428.1445">Predict Classification</text><path d="M167.5,456.9766 L167.5,474.3281 L147.5,478.3281 L167.5,482.3281 L167.5,499.6797 A0,0 0 0 0 167.5,499.6797 L302.5,499.6797 A0,0 0 0 0 302.5,499.6797 L302.5,466.9766 L292.5,456.9766 L167.5,456.9766 A0,0 0 0 0 167.5,456.9766 " fill="#FEFFDD" style="stroke:#181818;stroke-width:0.5;"/><path d="M292.5,456.9766 L292.5,466.9766 L302.5,466.9766 L292.5,456.9766 " fill="#FEFFDD" style="stroke:#181818;stroke-width:0.5;"/><ellipse cx="179" cy="470.8281" fill="#000000" rx="2.5" ry="2.5" style="stroke:#000000;stroke-width:0.0;"/><text fill="#000000" font-family="sans-serif" font-size="13" lengthAdjust="spacing" textLength="94" x="185.5" y="475.4717">Real/Fake Label</text><ellipse cx="179" cy="487.1797" fill="#000000" rx="2.5" ry="2.5" style="stroke:#000000;stroke-width:0.0;"/><text fill="#000000" font-family="sans-serif" font-size="13" lengthAdjust="spacing" textLength="102" x="185.5" y="491.8232">Confidence Score</text><rect fill="#F1F1F1" height="35.0938" rx="12.5" ry="12.5" style="stroke:#181818;stroke-width:0.5;" width="117" x="30.5" y="460.7813"/><text fill="#000000" font-family="sans-serif" font-size="12" lengthAdjust="spacing" textLength="97" x="40.5" y="483.2383">Generate Results</text><rect fill="#F1F1F1" height="35.0938" rx="12.5" ry="12.5" style="stroke:#181818;stroke-width:0.5;" width="150" x="14" y="519.6797"/><text fill="#000000" font-family="sans-serif" font-size="12" lengthAdjust="spacing" textLength="130" x="24" y="542.1367">Display Results to User</text><rect fill="#F1F1F1" height="35.0938" rx="12.5" ry="12.5" style="stroke:#181818;stroke-width:0.5;" width="135" x="368.5" y="232.7969"/><text fill="#000000" font-family="sans-serif" font-size="12" lengthAdjust="spacing" textLength="115" x="378.5" y="255.2539">Show Error Message</text><polygon fill="#F1F1F1" points="267.5,560.7734,279.5,572.7734,267.5,584.7734,255.5,572.7734,267.5,560.7734" style="stroke:#181818;stroke-width:0.5;"/><ellipse cx="267.5" cy="615.7734" fill="none" rx="11" ry="11" style="stroke:#222222;stroke-width:1.0;"/><ellipse cx="267.5" cy="615.7734" fill="#222222" rx="6" ry="6" style="stroke:#222222;stroke-width:1.0;"/><line style="stroke:#181818;stroke-width:1.0;" x1="267.5" x2="267.5" y1="68.6094" y2="88.6094"/><polygon fill="#181818" points="263.5,78.6094,267.5,88.6094,271.5,78.6094,267.5,82.6094" style="stroke:#181818;stroke-width:1.0;"/><line style="stroke:#181818;stroke-width:1.0;" x1="267.5" x2="267.5" y1="123.7031" y2="143.7031"/><polygon fill="#181818" points="263.5,133.7031,267.5,143.7031,271.5,133.7031,267.5,137.7031" style="stroke:#181818;stroke-width:1.0;"/><line style="stroke:#181818;stroke-width:1.0;" x1="89" x2="89" y1="271.6953" y2="295.5"/><polygon fill="#181818" points="85,285.5,89,295.5,93,285.5,89,289.5" style="stroke:#181818;stroke-width:1.0;"/><line style="stroke:#181818;stroke-width:1.0;" x1="89" x2="89" y1="330.5938" y2="350.5938"/><polygon fill="#181818" points="85,340.5938,89,350.5938,93,340.5938,89,344.5938" style="stroke:#181818;stroke-width:1.0;"/><line style="stroke:#181818;stroke-width:1.0;" x1="89" x2="89" y1="385.6875" y2="405.6875"/><polygon fill="#181818" points="85,395.6875,89,405.6875,93,395.6875,89,399.6875" style="stroke:#181818;stroke-width:1.0;"/><line style="stroke:#181818;stroke-width:1.0;" x1="89" x2="89" y1="440.7813" y2="460.7813"/><polygon fill="#181818" points="85,450.7813,89,460.7813,93,450.7813,89,454.7813" style="stroke:#181818;stroke-width:1.0;"/><line style="stroke:#181818;stroke-width:1.0;" x1="89" x2="89" y1="495.875" y2="519.6797"/><polygon fill="#181818" points="85,509.6797,89,519.6797,93,509.6797,89,513.6797" style="stroke:#181818;stroke-width:1.0;"/><line style="stroke:#181818;stroke-width:1.0;" x1="240.5" x2="89" y1="210.7969" y2="210.7969"/><line style="stroke:#181818;stroke-width:1.0;" x1="89" x2="89" y1="210.7969" y2="236.6016"/><polygon fill="#181818" points="85,226.6016,89,236.6016,93,226.6016,89,230.6016" style="stroke:#181818;stroke-width:1.0;"/><line style="stroke:#181818;stroke-width:1.0;" x1="294.5" x2="436" y1="210.7969" y2="210.7969"/><line style="stroke:#181818;stroke-width:1.0;" x1="436" x2="436" y1="210.7969" y2="232.7969"/><polygon fill="#181818" points="432,222.7969,436,232.7969,440,222.7969,436,226.7969" style="stroke:#181818;stroke-width:1.0;"/><line style="stroke:#181818;stroke-width:1.0;" x1="89" x2="89" y1="554.7734" y2="572.7734"/><line style="stroke:#181818;stroke-width:1.0;" x1="89" x2="255.5" y1="572.7734" y2="572.7734"/><polygon fill="#181818" points="245.5,568.7734,255.5,572.7734,245.5,576.7734,249.5,572.7734" style="stroke:#181818;stroke-width:1.0;"/><line style="stroke:#181818;stroke-width:1.0;" x1="436" x2="436" y1="267.8906" y2="572.7734"/><line style="stroke:#181818;stroke-width:1.0;" x1="436" x2="279.5" y1="572.7734" y2="572.7734"/><polygon fill="#181818" points="289.5,568.7734,279.5,572.7734,289.5,576.7734,285.5,572.7734" style="stroke:#181818;stroke-width:1.0;"/><line style="stroke:#181818;stroke-width:1.0;" x1="267.5" x2="267.5" y1="178.7969" y2="198.7969"/><polygon fill="#181818" points="263.5,188.7969,267.5,198.7969,271.5,188.7969,267.5,192.7969" style="stroke:#181818;stroke-width:1.0;"/><line style="stroke:#181818;stroke-width:1.0;" x1="267.5" x2="267.5" y1="584.7734" y2="604.7734"/><polygon fill="#181818" points="263.5,594.7734,267.5,604.7734,271.5,594.7734,267.5,598.7734" style="stroke:#181818;stroke-width:1.0;"/><!--SRC=[RL7BRi903BpdAto4YgftE5I8HuKKgef7x-x64AlBEh8DWR_l9eLJUzkT6O_jiRD70fW6vmlx3UQCHyLJKPYZUb6CzqOAY-Ia1k_K6apLEKIQPEuJ8rVe1AlKd3qZV8113xuEmMjACBYH3Gk0yOTIenB837PqpLg09BbI-LXx_W1iw2GNWlscj15OGu4nGgXHhQTBQKa36er0VvNcqhIYLSTJgdg__EowBQwk61oMX7vMCXZibi-h-N8ukGjAmGhM9QobelW0yumLvwfPH3C-S41dIG_sZH9fj-o6x1pT_bdXANCONvRuJL3Y5yKxEfDqu8fI8DW6KVexy9ojYNXxU8CBTC7tlIaQmI19d-EsbXOMggAmpc7YCHyYU_6XkvWqnGy0]--></g></svg>