<?xml version="1.0" encoding="us-ascii" standalone="no"?><svg xmlns="http://www.w3.org/2000/svg" xmlns:xlink="http://www.w3.org/1999/xlink" contentStyleType="text/css" height="1292px" preserveAspectRatio="none" style="width:1861px;height:1292px;background:#FFFFFF;" version="1.1" viewBox="0 0 1861 1292" width="1861px" zoomAndPan="magnify"><defs/><g><text fill="#000000" font-family="sans-serif" font-size="14" font-weight="bold" lengthAdjust="spacing" textLength="327" x="765.75" y="34.5332">Fake News Detection System - Activity Diagram</text><rect fill="none" height="22.6406" style="stroke:none;stroke-width:1.0;" width="1828.5" x="15" y="51.0645"/><ellipse cx="327.5" cy="88.7051" fill="#222222" rx="10" ry="10" style="stroke:#222222;stroke-width:1.0;"/><rect fill="#F1F1F1" height="35.0938" rx="12.5" ry="12.5" style="stroke:#181818;stroke-width:0.5;" width="145" x="255" y="118.7051"/><text fill="#000000" font-family="sans-serif" font-size="12" lengthAdjust="spacing" textLength="125" x="265" y="141.1621">Enter News Article Text</text><rect fill="#F1F1F1" height="35.0938" rx="12.5" ry="12.5" style="stroke:#181818;stroke-width:0.5;" width="107" x="74" y="1091.9551"/><text fill="#000000" font-family="sans-serif" font-size="12" lengthAdjust="spacing" textLength="87" x="84" y="1114.4121">Display Results</text><polygon fill="#F1F1F1" points="90.5,1147.0488,164.5,1147.0488,176.5,1159.0488,164.5,1171.0488,90.5,1171.0488,78.5,1159.0488,90.5,1147.0488" style="stroke:#181818;stroke-width:0.5;"/><text fill="#000000" font-family="sans-serif" font-size="11" lengthAdjust="spacing" textLength="74" x="90.5" y="1163.5498">User Satisfied?</text><text fill="#000000" font-family="sans-serif" font-size="11" lengthAdjust="spacing" textLength="18" x="60.5" y="1156.6318">yes</text><text fill="#000000" font-family="sans-serif" font-size="11" lengthAdjust="spacing" textLength="12" x="176.5" y="1156.6318">no</text><rect fill="#F1F1F1" height="35.0938" rx="12.5" ry="12.5" style="stroke:#181818;stroke-width:0.5;" width="91" x="21" y="1181.0488"/><text fill="#000000" font-family="sans-serif" font-size="12" lengthAdjust="spacing" textLength="71" x="31" y="1203.5059">End Session</text><ellipse cx="66.5" cy="1247.1426" fill="none" rx="11" ry="11" style="stroke:#222222;stroke-width:1.0;"/><ellipse cx="66.5" cy="1247.1426" fill="#222222" rx="6" ry="6" style="stroke:#222222;stroke-width:1.0;"/><rect fill="#F1F1F1" height="35.0938" rx="12.5" ry="12.5" style="stroke:#181818;stroke-width:0.5;" width="113" x="132" y="1181.0488"/><text fill="#000000" font-family="sans-serif" font-size="12" lengthAdjust="spacing" textLength="93" x="142" y="1203.5059">Enter New Article</text><rect fill="#F1F1F1" height="35.0938" rx="12.5" ry="12.5" style="stroke:#181818;stroke-width:0.5;" width="90" x="410" y="412.041"/><text fill="#000000" font-family="sans-serif" font-size="12" lengthAdjust="spacing" textLength="70" x="420" y="434.498">Correct Input</text><line style="stroke:#000000;stroke-width:1.5;" x1="15" x2="15" y1="51.0645" y2="1280.1426"/><rect fill="#F1F1F1" height="35.0938" rx="12.5" ry="12.5" style="stroke:#181818;stroke-width:0.5;" width="94" x="742" y="173.7988"/><text fill="#000000" font-family="sans-serif" font-size="12" lengthAdjust="spacing" textLength="74" x="752" y="196.2559">Receive Input</text><rect fill="#F1F1F1" height="35.0938" rx="12.5" ry="12.5" style="stroke:#181818;stroke-width:0.5;" width="94" x="742" y="228.8926"/><text fill="#000000" font-family="sans-serif" font-size="12" lengthAdjust="spacing" textLength="74" x="752" y="251.3496">Validate Input</text><polygon fill="#F1F1F1" points="761,283.9863,817,283.9863,829,295.9863,817,307.9863,761,307.9863,749,295.9863,761,283.9863" style="stroke:#181818;stroke-width:0.5;"/><text fill="#000000" font-family="sans-serif" font-size="11" lengthAdjust="spacing" textLength="56" x="761" y="300.4873">Input Valid?</text><text fill="#000000" font-family="sans-serif" font-size="11" lengthAdjust="spacing" textLength="18" x="731" y="293.5693">yes</text><text fill="#000000" font-family="sans-serif" font-size="11" lengthAdjust="spacing" textLength="12" x="829" y="293.5693">no</text><path d="M639.5,317.9863 L639.5,368.041 L619.5,372.041 L639.5,376.041 L639.5,426.0957 A0,0 0 0 0 639.5,426.0957 L828.5,426.0957 A0,0 0 0 0 828.5,426.0957 L828.5,327.9863 L818.5,317.9863 L639.5,317.9863 A0,0 0 0 0 639.5,317.9863 " fill="#FEFFDD" style="stroke:#181818;stroke-width:0.5;"/><path d="M818.5,317.9863 L818.5,327.9863 L828.5,327.9863 L818.5,317.9863 " fill="#FEFFDD" style="stroke:#181818;stroke-width:0.5;"/><ellipse cx="651" cy="331.8379" fill="#000000" rx="2.5" ry="2.5" style="stroke:#000000;stroke-width:0.0;"/><text fill="#000000" font-family="sans-serif" font-size="13" lengthAdjust="spacing" textLength="82" x="657.5" y="336.4814">Remove URLs</text><ellipse cx="651" cy="348.1895" fill="#000000" rx="2.5" ry="2.5" style="stroke:#000000;stroke-width:0.0;"/><text fill="#000000" font-family="sans-serif" font-size="13" lengthAdjust="spacing" textLength="156" x="657.5" y="352.833">Remove special characters</text><ellipse cx="651" cy="364.541" fill="#000000" rx="2.5" ry="2.5" style="stroke:#000000;stroke-width:0.0;"/><text fill="#000000" font-family="sans-serif" font-size="13" lengthAdjust="spacing" textLength="120" x="657.5" y="369.1846">Convert to lowercase</text><ellipse cx="651" cy="380.8926" fill="#000000" rx="2.5" ry="2.5" style="stroke:#000000;stroke-width:0.0;"/><text fill="#000000" font-family="sans-serif" font-size="13" lengthAdjust="spacing" textLength="109" x="657.5" y="385.5361">Remove stopwords</text><ellipse cx="651" cy="397.2441" fill="#000000" rx="2.5" ry="2.5" style="stroke:#000000;stroke-width:0.0;"/><text fill="#000000" font-family="sans-serif" font-size="13" lengthAdjust="spacing" textLength="73" x="657.5" y="401.8877">Tokenization</text><ellipse cx="651" cy="413.5957" fill="#000000" rx="2.5" ry="2.5" style="stroke:#000000;stroke-width:0.0;"/><text fill="#000000" font-family="sans-serif" font-size="13" lengthAdjust="spacing" textLength="85" x="657.5" y="418.2393">Lemmatization</text><rect fill="#F1F1F1" height="35.0938" rx="12.5" ry="12.5" style="stroke:#181818;stroke-width:0.5;" width="109" x="510.5" y="354.4941"/><text fill="#000000" font-family="sans-serif" font-size="12" lengthAdjust="spacing" textLength="89" x="520.5" y="376.9512">Preprocess Text</text><path d="M639,457.1348 L639,490.8379 L619,494.8379 L639,498.8379 L639,532.541 A0,0 0 0 0 639,532.541 L808,532.541 A0,0 0 0 0 808,532.541 L808,467.1348 L798,457.1348 L639,457.1348 A0,0 0 0 0 639,457.1348 " fill="#FEFFDD" style="stroke:#181818;stroke-width:0.5;"/><path d="M798,457.1348 L798,467.1348 L808,467.1348 L798,457.1348 " fill="#FEFFDD" style="stroke:#181818;stroke-width:0.5;"/><ellipse cx="650.5" cy="470.9863" fill="#000000" rx="2.5" ry="2.5" style="stroke:#000000;stroke-width:0.0;"/><text fill="#000000" font-family="sans-serif" font-size="13" lengthAdjust="spacing" textLength="119" x="657" y="475.6299">TF-IDF Vectorization</text><ellipse cx="650.5" cy="487.3379" fill="#000000" rx="2.5" ry="2.5" style="stroke:#000000;stroke-width:0.0;"/><text fill="#000000" font-family="sans-serif" font-size="13" lengthAdjust="spacing" textLength="79" x="657" y="491.9814">Bag of Words</text><ellipse cx="650.5" cy="503.6895" fill="#000000" rx="2.5" ry="2.5" style="stroke:#000000;stroke-width:0.0;"/><text fill="#000000" font-family="sans-serif" font-size="13" lengthAdjust="spacing" textLength="49" x="657" y="508.333">N-grams</text><ellipse cx="650.5" cy="520.041" fill="#000000" rx="2.5" ry="2.5" style="stroke:#000000;stroke-width:0.0;"/><text fill="#000000" font-family="sans-serif" font-size="13" lengthAdjust="spacing" textLength="136" x="657" y="524.6846">Feature Matrix Creation</text><rect fill="#F1F1F1" height="35.0938" rx="12.5" ry="12.5" style="stroke:#181818;stroke-width:0.5;" width="108" x="511" y="477.291"/><text fill="#000000" font-family="sans-serif" font-size="12" lengthAdjust="spacing" textLength="88" x="521" y="499.748">Extract Features</text><rect fill="#F1F1F1" height="35.0938" rx="12.5" ry="12.5" style="stroke:#181818;stroke-width:0.5;" width="110" x="510" y="935.1035"/><text fill="#000000" font-family="sans-serif" font-size="12" lengthAdjust="spacing" textLength="90" x="520" y="957.5605">Prepare Results</text><path d="M634,980.1973 L634,1022.0762 L614,1026.0762 L634,1030.0762 L634,1071.9551 A0,0 0 0 0 634,1071.9551 L780,1071.9551 A0,0 0 0 0 780,1071.9551 L780,990.1973 L770,980.1973 L634,980.1973 A0,0 0 0 0 634,980.1973 " fill="#FEFFDD" style="stroke:#181818;stroke-width:0.5;"/><path d="M770,980.1973 L770,990.1973 L780,990.1973 L770,980.1973 " fill="#FEFFDD" style="stroke:#181818;stroke-width:0.5;"/><ellipse cx="645.5" cy="994.0488" fill="#000000" rx="2.5" ry="2.5" style="stroke:#000000;stroke-width:0.0;"/><text fill="#000000" font-family="sans-serif" font-size="13" lengthAdjust="spacing" textLength="112" x="652" y="998.6924">Classification Label</text><ellipse cx="645.5" cy="1010.4004" fill="#000000" rx="2.5" ry="2.5" style="stroke:#000000;stroke-width:0.0;"/><text fill="#000000" font-family="sans-serif" font-size="13" lengthAdjust="spacing" textLength="102" x="652" y="1015.0439">Confidence Score</text><ellipse cx="645.5" cy="1026.752" fill="#000000" rx="2.5" ry="2.5" style="stroke:#000000;stroke-width:0.0;"/><text fill="#000000" font-family="sans-serif" font-size="13" lengthAdjust="spacing" textLength="113" x="652" y="1031.3955">Sentiment Analysis</text><ellipse cx="645.5" cy="1043.1035" fill="#000000" rx="2.5" ry="2.5" style="stroke:#000000;stroke-width:0.0;"/><text fill="#000000" font-family="sans-serif" font-size="13" lengthAdjust="spacing" textLength="83" x="652" y="1047.7471">Key Indicators</text><ellipse cx="645.5" cy="1059.4551" fill="#000000" rx="2.5" ry="2.5" style="stroke:#000000;stroke-width:0.0;"/><text fill="#000000" font-family="sans-serif" font-size="13" lengthAdjust="spacing" textLength="68" x="652" y="1064.0986">Explanation</text><rect fill="#F1F1F1" height="35.0938" rx="12.5" ry="12.5" style="stroke:#181818;stroke-width:0.5;" width="98" x="516" y="1008.5293"/><text fill="#000000" font-family="sans-serif" font-size="12" lengthAdjust="spacing" textLength="78" x="526" y="1030.9863">Format Output</text><path d="M1006,317.9863 L1006,343.5137 L986,347.5137 L1006,351.5137 L1006,377.041 A0,0 0 0 0 1006,377.041 L1146,377.041 A0,0 0 0 0 1146,377.041 L1146,327.9863 L1136,317.9863 L1006,317.9863 A0,0 0 0 0 1006,317.9863 " fill="#FEFFDD" style="stroke:#181818;stroke-width:0.5;"/><path d="M1136,317.9863 L1136,327.9863 L1146,327.9863 L1136,317.9863 " fill="#FEFFDD" style="stroke:#181818;stroke-width:0.5;"/><ellipse cx="1017.5" cy="331.8379" fill="#000000" rx="2.5" ry="2.5" style="stroke:#000000;stroke-width:0.0;"/><text fill="#000000" font-family="sans-serif" font-size="13" lengthAdjust="spacing" textLength="107" x="1024" y="336.4814">Invalid input format</text><ellipse cx="1017.5" cy="348.1895" fill="#000000" rx="2.5" ry="2.5" style="stroke:#000000;stroke-width:0.0;"/><text fill="#000000" font-family="sans-serif" font-size="13" lengthAdjust="spacing" textLength="64" x="1024" y="352.833">Empty text</text><ellipse cx="1017.5" cy="364.541" fill="#000000" rx="2.5" ry="2.5" style="stroke:#000000;stroke-width:0.0;"/><text fill="#000000" font-family="sans-serif" font-size="13" lengthAdjust="spacing" textLength="80" x="1024" y="369.1846">Text too short</text><rect fill="#F1F1F1" height="35.0938" rx="12.5" ry="12.5" style="stroke:#181818;stroke-width:0.5;" width="135" x="851" y="329.9668"/><text fill="#000000" font-family="sans-serif" font-size="12" lengthAdjust="spacing" textLength="115" x="861" y="352.4238">Show Error Message</text><line style="stroke:#000000;stroke-width:1.5;" x1="504" x2="504" y1="51.0645" y2="1280.1426"/><rect fill="#F1F1F1" height="35.0938" rx="12.5" ry="12.5" style="stroke:#181818;stroke-width:0.5;" width="129" x="1433" y="552.541"/><text fill="#000000" font-family="sans-serif" font-size="12" lengthAdjust="spacing" textLength="109" x="1443" y="574.998">Load Trained Model</text><rect fill="#F1F1F1" height="35.0938" rx="12.5" ry="12.5" style="stroke:#181818;stroke-width:0.5;" width="104" x="1445.5" y="607.6348"/><text fill="#000000" font-family="sans-serif" font-size="12" lengthAdjust="spacing" textLength="84" x="1455.5" y="630.0918">Load Vectorizer</text><rect fill="#F1F1F1" height="35.0938" rx="12.5" ry="12.5" style="stroke:#181818;stroke-width:0.5;" width="159" x="1418" y="662.7285"/><text fill="#000000" font-family="sans-serif" font-size="12" lengthAdjust="spacing" textLength="139" x="1428" y="685.1855">Transform Input Features</text><rect fill="#F1F1F1" height="35.0938" rx="12.5" ry="12.5" style="stroke:#181818;stroke-width:0.5;" width="136" x="1429.5" y="717.8223"/><text fill="#000000" font-family="sans-serif" font-size="12" lengthAdjust="spacing" textLength="116" x="1439.5" y="740.2793">Predict Classification</text><rect fill="#F1F1F1" height="35.0938" rx="12.5" ry="12.5" style="stroke:#181818;stroke-width:0.5;" width="173" x="1411" y="772.916"/><text fill="#000000" font-family="sans-serif" font-size="12" lengthAdjust="spacing" textLength="153" x="1421" y="795.373">Calculate Confidence Score</text><rect fill="#555555" height="6" rx="2.5" ry="2.5" style="stroke:#555555;stroke-width:1.0;" width="681" x="1157" y="828.0098"/><rect fill="#F1F1F1" height="35.0938" rx="12.5" ry="12.5" style="stroke:#181818;stroke-width:0.5;" width="140" x="1169" y="854.0098"/><text fill="#000000" font-family="sans-serif" font-size="12" lengthAdjust="spacing" textLength="120" x="1179" y="876.4668">Classify as Real/Fake</text><rect fill="#F1F1F1" height="35.0938" rx="12.5" ry="12.5" style="stroke:#181818;stroke-width:0.5;" width="166" x="1319" y="854.0098"/><text fill="#000000" font-family="sans-serif" font-size="12" lengthAdjust="spacing" textLength="146" x="1329" y="876.4668">Generate Probability Score</text><rect fill="#F1F1F1" height="35.0938" rx="12.5" ry="12.5" style="stroke:#181818;stroke-width:0.5;" width="172" x="1513" y="854.0098"/><text fill="#000000" font-family="sans-serif" font-size="12" lengthAdjust="spacing" textLength="152" x="1523" y="876.4668">Perform Sentiment Analysis</text><rect fill="#F1F1F1" height="35.0938" rx="12.5" ry="12.5" style="stroke:#181818;stroke-width:0.5;" width="131" x="1695" y="854.0098"/><text fill="#000000" font-family="sans-serif" font-size="12" lengthAdjust="spacing" textLength="111" x="1705" y="876.4668">Extract Key Features</text><rect fill="#555555" height="6" rx="2.5" ry="2.5" style="stroke:#555555;stroke-width:1.0;" width="681" x="1157" y="909.1035"/><line style="stroke:#000000;stroke-width:1.5;" x1="1151" x2="1151" y1="51.0645" y2="1280.1426"/><line style="stroke:#000000;stroke-width:1.5;" x1="1842" x2="1842" y1="51.0645" y2="1280.1426"/><line style="stroke:#181818;stroke-width:1.0;" x1="327.5" x2="327.5" y1="98.7051" y2="118.7051"/><polygon fill="#181818" points="323.5,108.7051,327.5,118.7051,331.5,108.7051,327.5,112.7051" style="stroke:#181818;stroke-width:1.0;"/><line style="stroke:#181818;stroke-width:1.0;" x1="66.5" x2="66.5" y1="1216.1426" y2="1236.1426"/><polygon fill="#181818" points="62.5,1226.1426,66.5,1236.1426,70.5,1226.1426,66.5,1230.1426" style="stroke:#181818;stroke-width:1.0;"/><line style="stroke:#181818;stroke-width:1.0;" x1="78.5" x2="66.5" y1="1159.0488" y2="1159.0488"/><line style="stroke:#181818;stroke-width:1.0;" x1="66.5" x2="66.5" y1="1159.0488" y2="1181.0488"/><polygon fill="#181818" points="62.5,1171.0488,66.5,1181.0488,70.5,1171.0488,66.5,1175.0488" style="stroke:#181818;stroke-width:1.0;"/><line style="stroke:#181818;stroke-width:1.0;" x1="176.5" x2="188.5" y1="1159.0488" y2="1159.0488"/><line style="stroke:#181818;stroke-width:1.0;" x1="188.5" x2="188.5" y1="1159.0488" y2="1181.0488"/><polygon fill="#181818" points="184.5,1171.0488,188.5,1181.0488,192.5,1171.0488,188.5,1175.0488" style="stroke:#181818;stroke-width:1.0;"/><line style="stroke:#181818;stroke-width:1.0;" x1="127.5" x2="127.5" y1="1127.0488" y2="1147.0488"/><polygon fill="#181818" points="123.5,1137.0488,127.5,1147.0488,131.5,1137.0488,127.5,1141.0488" style="stroke:#181818;stroke-width:1.0;"/><line style="stroke:#181818;stroke-width:1.0;" x1="789" x2="789" y1="208.8926" y2="228.8926"/><polygon fill="#181818" points="785,218.8926,789,228.8926,793,218.8926,789,222.8926" style="stroke:#181818;stroke-width:1.0;"/><line style="stroke:#181818;stroke-width:1.0;" x1="565" x2="565" y1="389.5879" y2="477.291"/><polygon fill="#181818" points="561,467.291,565,477.291,569,467.291,565,471.291" style="stroke:#181818;stroke-width:1.0;"/><line style="stroke:#181818;stroke-width:1.0;" x1="565" x2="565" y1="970.1973" y2="1008.5293"/><polygon fill="#181818" points="561,998.5293,565,1008.5293,569,998.5293,565,1002.5293" style="stroke:#181818;stroke-width:1.0;"/><line style="stroke:#181818;stroke-width:1.0;" x1="749" x2="565" y1="295.9863" y2="295.9863"/><line style="stroke:#181818;stroke-width:1.0;" x1="565" x2="565" y1="295.9863" y2="354.4941"/><polygon fill="#181818" points="561,344.4941,565,354.4941,569,344.4941,565,348.4941" style="stroke:#181818;stroke-width:1.0;"/><line style="stroke:#181818;stroke-width:1.0;" x1="829" x2="918.5" y1="295.9863" y2="295.9863"/><line style="stroke:#181818;stroke-width:1.0;" x1="918.5" x2="918.5" y1="295.9863" y2="329.9668"/><polygon fill="#181818" points="914.5,319.9668,918.5,329.9668,922.5,319.9668,918.5,323.9668" style="stroke:#181818;stroke-width:1.0;"/><line style="stroke:#181818;stroke-width:1.0;" x1="789" x2="789" y1="263.9863" y2="283.9863"/><polygon fill="#181818" points="785,273.9863,789,283.9863,793,273.9863,789,277.9863" style="stroke:#181818;stroke-width:1.0;"/><line style="stroke:#181818;stroke-width:1.0;" x1="1497.5" x2="1497.5" y1="587.6348" y2="607.6348"/><polygon fill="#181818" points="1493.5,597.6348,1497.5,607.6348,1501.5,597.6348,1497.5,601.6348" style="stroke:#181818;stroke-width:1.0;"/><line style="stroke:#181818;stroke-width:1.0;" x1="1497.5" x2="1497.5" y1="642.7285" y2="662.7285"/><polygon fill="#181818" points="1493.5,652.7285,1497.5,662.7285,1501.5,652.7285,1497.5,656.7285" style="stroke:#181818;stroke-width:1.0;"/><line style="stroke:#181818;stroke-width:1.0;" x1="1497.5" x2="1497.5" y1="697.8223" y2="717.8223"/><polygon fill="#181818" points="1493.5,707.8223,1497.5,717.8223,1501.5,707.8223,1497.5,711.8223" style="stroke:#181818;stroke-width:1.0;"/><line style="stroke:#181818;stroke-width:1.0;" x1="1497.5" x2="1497.5" y1="752.916" y2="772.916"/><polygon fill="#181818" points="1493.5,762.916,1497.5,772.916,1501.5,762.916,1497.5,766.916" style="stroke:#181818;stroke-width:1.0;"/><line style="stroke:#181818;stroke-width:1.0;" x1="1239" x2="1239" y1="834.0098" y2="854.0098"/><polygon fill="#181818" points="1235,844.0098,1239,854.0098,1243,844.0098,1239,848.0098" style="stroke:#181818;stroke-width:1.0;"/><line style="stroke:#181818;stroke-width:1.0;" x1="1402" x2="1402" y1="834.0098" y2="854.0098"/><polygon fill="#181818" points="1398,844.0098,1402,854.0098,1406,844.0098,1402,848.0098" style="stroke:#181818;stroke-width:1.0;"/><line style="stroke:#181818;stroke-width:1.0;" x1="1599" x2="1599" y1="834.0098" y2="854.0098"/><polygon fill="#181818" points="1595,844.0098,1599,854.0098,1603,844.0098,1599,848.0098" style="stroke:#181818;stroke-width:1.0;"/><line style="stroke:#181818;stroke-width:1.0;" x1="1760.5" x2="1760.5" y1="834.0098" y2="854.0098"/><polygon fill="#181818" points="1756.5,844.0098,1760.5,854.0098,1764.5,844.0098,1760.5,848.0098" style="stroke:#181818;stroke-width:1.0;"/><line style="stroke:#181818;stroke-width:1.0;" x1="1239" x2="1239" y1="889.1035" y2="909.1035"/><polygon fill="#181818" points="1235,899.1035,1239,909.1035,1243,899.1035,1239,903.1035" style="stroke:#181818;stroke-width:1.0;"/><line style="stroke:#181818;stroke-width:1.0;" x1="1402" x2="1402" y1="889.1035" y2="909.1035"/><polygon fill="#181818" points="1398,899.1035,1402,909.1035,1406,899.1035,1402,903.1035" style="stroke:#181818;stroke-width:1.0;"/><line style="stroke:#181818;stroke-width:1.0;" x1="1599" x2="1599" y1="889.1035" y2="909.1035"/><polygon fill="#181818" points="1595,899.1035,1599,909.1035,1603,899.1035,1599,903.1035" style="stroke:#181818;stroke-width:1.0;"/><line style="stroke:#181818;stroke-width:1.0;" x1="1760.5" x2="1760.5" y1="889.1035" y2="909.1035"/><polygon fill="#181818" points="1756.5,899.1035,1760.5,909.1035,1764.5,899.1035,1760.5,903.1035" style="stroke:#181818;stroke-width:1.0;"/><line style="stroke:#181818;stroke-width:1.0;" x1="1497.5" x2="1497.5" y1="808.0098" y2="828.0098"/><polygon fill="#181818" points="1493.5,818.0098,1497.5,828.0098,1501.5,818.0098,1497.5,822.0098" style="stroke:#181818;stroke-width:1.0;"/><line style="stroke:#181818;stroke-width:1.0;" x1="327.5" x2="327.5" y1="153.7988" y2="158.7988"/><line style="stroke:#181818;stroke-width:1.0;" x1="327.5" x2="789" y1="158.7988" y2="158.7988"/><line style="stroke:#181818;stroke-width:1.0;" x1="789" x2="789" y1="158.7988" y2="173.7988"/><polygon fill="#181818" points="785,163.7988,789,173.7988,793,163.7988,789,167.7988" style="stroke:#181818;stroke-width:1.0;"/><line style="stroke:#181818;stroke-width:1.0;" x1="565" x2="565" y1="512.3848" y2="537.541"/><line style="stroke:#181818;stroke-width:1.0;" x1="565" x2="1497.5" y1="537.541" y2="537.541"/><line style="stroke:#181818;stroke-width:1.0;" x1="1497.5" x2="1497.5" y1="537.541" y2="552.541"/><polygon fill="#181818" points="1493.5,542.541,1497.5,552.541,1501.5,542.541,1497.5,546.541" style="stroke:#181818;stroke-width:1.0;"/><line style="stroke:#181818;stroke-width:1.0;" x1="1497.5" x2="1497.5" y1="915.1035" y2="920.1035"/><line style="stroke:#181818;stroke-width:1.0;" x1="1497.5" x2="565" y1="920.1035" y2="920.1035"/><line style="stroke:#181818;stroke-width:1.0;" x1="565" x2="565" y1="920.1035" y2="935.1035"/><polygon fill="#181818" points="561,925.1035,565,935.1035,569,925.1035,565,929.1035" style="stroke:#181818;stroke-width:1.0;"/><line style="stroke:#181818;stroke-width:1.0;" x1="565" x2="565" y1="1043.623" y2="1075.2891"/><line style="stroke:#181818;stroke-width:1.0;" x1="565" x2="127.5" y1="1075.2891" y2="1075.2891"/><line style="stroke:#181818;stroke-width:1.0;" x1="127.5" x2="127.5" y1="1075.2891" y2="1091.9551"/><polygon fill="#181818" points="123.5,1081.9551,127.5,1091.9551,131.5,1081.9551,127.5,1085.9551" style="stroke:#181818;stroke-width:1.0;"/><line style="stroke:#181818;stroke-width:1.0;" x1="918.5" x2="918.5" y1="365.0605" y2="388.5508"/><line style="stroke:#181818;stroke-width:1.0;" x1="918.5" x2="455" y1="388.5508" y2="388.5508"/><line style="stroke:#181818;stroke-width:1.0;" x1="455" x2="455" y1="388.5508" y2="412.041"/><polygon fill="#181818" points="451,402.041,455,412.041,459,402.041,455,406.041" style="stroke:#181818;stroke-width:1.0;"/><text fill="#000000" font-family="sans-serif" font-size="18" lengthAdjust="spacing" textLength="38" x="240.5" y="69.75">User</text><text fill="#000000" font-family="sans-serif" font-size="18" lengthAdjust="spacing" textLength="59" x="798" y="69.75">System</text><text fill="#000000" font-family="sans-serif" font-size="18" lengthAdjust="spacing" textLength="79" x="1457" y="69.75">ML Model</text><!--SRC=[VLHDRzim3BtxL_3O3YXsJmz3beyXMD85ITgTMPjEXCfIG34V7lBZHzbochJPBeP5Ff9FZwJ4Y2KOunl14nq234ae5-CTBEiWLC43zFMyDrB3qE2QiSgoqtCWFcL1a2NhZPmGjz5z5fDhlXKTvL5nROvJrbjGJcPFC77RNVJqNj2Q0kNTOaguQ_wXSNsx1zcGWxkQmdq6q9ipRTdd54BA3k2ynhDPRqGF05zWGPNN8i-BQRYsX2tb1Yta6sJCbMxd7tYt9nOG3zOVY7CCz25K_FRWkUWYLlwDdFc3KQDacb9LwVbi8rSqtFGtCXyT9HQ5CQ7icC9DwglnmsGuXXSLt_Dr-k-u1b_2xmiIJm-n4Tqf9OOP2fiZ39XkCpdDfZ3p1TbJf3NrMC2AqJWgMlDZ8jnuEYR4dLcnBfIUgxPdL_T97IgCtdDWCGHJchnXqNa7QFETZHrNpKjJaCi9bhbdIWZD_DPSg9SIr811ku3sQnpFnmG1N2lb5lY3775CEMV_Yg_6nYazv_o8dXCtx9Van5JwWRv3MmSJRg6xhlsa-kgcKT94DKhQJNYQKDGsB2Zih9nb6MjD5FYrasRGR_J-MZ2OuYlPz_cyqYgPFryXEIBRYIjYAdyUyj5nQz7zOoRQLLQUGnCKLd-W7zSoGc2fyQ4qz6aperQQSgcRcTeDpTB4KZOGt3b_XgM7edidMd11WlccPMRAMFOoxbBXvSOVOCJi6MPQ3jTqKy-9sySd14mpfcMZVoT5jTKH4Nr0khtJNzr-3s7ZMVuZpy0pwqfqxzK5xQpb_HS0]--></g></svg>