<?xml version="1.0" encoding="us-ascii" standalone="no"?><svg xmlns="http://www.w3.org/2000/svg" xmlns:xlink="http://www.w3.org/1999/xlink" contentStyleType="text/css" height="470px" preserveAspectRatio="none" style="width:860px;height:470px;background:#FFFFFF;" version="1.1" viewBox="0 0 860 470" width="860px" zoomAndPan="magnify"><defs/><g><text fill="#000000" font-family="sans-serif" font-size="14" font-weight="bold" lengthAdjust="spacing" textLength="342" x="252" y="24.5332">Fake News Detection System - Use Case Diagram</text><!--cluster Fake News Detection System--><g id="cluster_Fake News Detection System"><rect fill="none" height="366" rx="2.5" ry="2.5" style="stroke:#181818;stroke-width:1.0;" width="721" x="133" y="51.4594"/><text fill="#000000" font-family="sans-serif" font-size="14" font-weight="bold" lengthAdjust="spacing" textLength="202" x="392.5" y="67.9926">Fake News Detection System</text></g><g id="elem_UC1"><ellipse cx="229.3789" cy="178.3352" fill="#FFFFE0" rx="79.8789" ry="18.3758" style="stroke:#000080;stroke-width:0.5;"/><text fill="#000000" font-family="sans-serif" font-size="14" lengthAdjust="spacing" textLength="114" x="171.3373" y="182.3618">Enter News Article</text></g><g id="elem_UC2"><ellipse cx="502.5109" cy="106.4616" fill="#FFFFE0" rx="73.0109" ry="17.0022" style="stroke:#000080;stroke-width:0.5;"/><text fill="#000000" font-family="sans-serif" font-size="14" lengthAdjust="spacing" textLength="96" x="451.5109" y="110.9782">View Prediction</text></g><g id="elem_UC3"><ellipse cx="229.6887" cy="106.4971" fill="#FFFFE0" rx="80.6887" ry="18.5377" style="stroke:#000080;stroke-width:0.5;"/><text fill="#000000" font-family="sans-serif" font-size="14" lengthAdjust="spacing" textLength="116" x="171.0015" y="110.4254">Check Confidence</text></g><g id="elem_UC4"><ellipse cx="229.341" cy="385.5776" fill="#FFFFE0" rx="65.341" ry="15.6182" style="stroke:#000080;stroke-width:0.5;"/><text fill="#000000" font-family="sans-serif" font-size="14" lengthAdjust="spacing" textLength="75" x="188.841" y="390.0942">Train Model</text></g><g id="elem_UC5"><ellipse cx="502.376" cy="375.5346" fill="#FFFFE0" rx="73.376" ry="17.0752" style="stroke:#000080;stroke-width:0.5;"/><text fill="#000000" font-family="sans-serif" font-size="14" lengthAdjust="spacing" textLength="97" x="450.876" y="380.0512">Evaluate Model</text></g><g id="elem_UC6"><ellipse cx="229.376" cy="249.5346" fill="#FFFFE0" rx="73.376" ry="17.0752" style="stroke:#000080;stroke-width:0.5;"/><text fill="#000000" font-family="sans-serif" font-size="14" lengthAdjust="spacing" textLength="97" x="177.876" y="254.0512">Monitor System</text></g><g id="elem_UC7"><ellipse cx="229.3041" cy="318.3202" fill="#FFFFE0" rx="69.8041" ry="16.3608" style="stroke:#000080;stroke-width:0.5;"/><text fill="#000000" font-family="sans-serif" font-size="14" lengthAdjust="spacing" textLength="87" x="182.8041" y="322.8368">Update Model</text></g><g id="elem_UC8"><ellipse cx="502.6002" cy="177.4794" fill="#FFFFE0" rx="75.6002" ry="17.52" style="stroke:#000080;stroke-width:0.5;"/><text fill="#000000" font-family="sans-serif" font-size="14" lengthAdjust="spacing" textLength="103" x="448.1002" y="181.996">Preprocess Text</text></g><g id="elem_UC9"><ellipse cx="766.5677" cy="142.6729" fill="#FFFFE0" rx="71.5677" ry="16.7135" style="stroke:#000080;stroke-width:0.5;"/><text fill="#000000" font-family="sans-serif" font-size="14" lengthAdjust="spacing" textLength="92" x="717.5677" y="147.1895">Classify Article</text></g><!--entity User--><g id="elem_User"><ellipse cx="46" cy="75.9594" fill="#F1F1F1" rx="8" ry="8" style="stroke:#181818;stroke-width:0.5;"/><path d="M46,83.9594 L46,110.9594 M33,91.9594 L59,91.9594 M46,110.9594 L33,125.9594 M46,110.9594 L59,125.9594 " fill="none" style="stroke:#181818;stroke-width:0.5;"/><text fill="#000000" font-family="sans-serif" font-size="14" lengthAdjust="spacing" textLength="29" x="31.5" y="141.9926">User</text></g><!--entity ML--><g id="elem_ML"><ellipse cx="46" cy="395.9594" fill="#F1F1F1" rx="8" ry="8" style="stroke:#181818;stroke-width:0.5;"/><path d="M46,403.9594 L46,430.9594 M33,411.9594 L59,411.9594 M46,430.9594 L33,445.9594 M46,430.9594 L59,445.9594 " fill="none" style="stroke:#181818;stroke-width:0.5;"/><text fill="#000000" font-family="sans-serif" font-size="14" lengthAdjust="spacing" textLength="80" x="6" y="461.9926">ML Engineer</text></g><!--entity Admin--><g id="elem_Admin"><ellipse cx="46" cy="257.9594" fill="#F1F1F1" rx="8" ry="8" style="stroke:#181818;stroke-width:0.5;"/><path d="M46,265.9594 L46,292.9594 M33,273.9594 L59,273.9594 M46,292.9594 L33,307.9594 M46,292.9594 L59,307.9594 " fill="none" style="stroke:#181818;stroke-width:0.5;"/><text fill="#000000" font-family="sans-serif" font-size="14" lengthAdjust="spacing" textLength="39" x="26.5" y="323.9926">Admin</text></g><!--link User to UC1--><g id="link_User_UC1"><path d="M60.63,113.2394 C76.06,120.8094 102.04,133.1894 125,142.4594 C143.52,149.9394 158.5784,155.4108 176.6084,161.5308 " fill="none" id="User-to-UC1" style="stroke:#181818;stroke-width:1.0;"/><polygon fill="#181818" points="182.29,163.4594,175.0533,156.7788,177.5553,161.8523,172.4819,164.3543,182.29,163.4594" style="stroke:#181818;stroke-width:1.0;"/></g><!--link User to UC2--><g id="link_User_UC2"><path d="M60.72,97.8894 C75.82,89.0094 101.11,75.7094 125,70.4594 C242.69,44.6094 379.3005,72.7814 450.5305,91.6714 " fill="none" id="User-to-UC2" style="stroke:#181818;stroke-width:1.0;"/><polygon fill="#181818" points="456.33,93.2094,448.6561,87.036,451.4971,91.9277,446.6054,94.7687,456.33,93.2094" style="stroke:#181818;stroke-width:1.0;"/></g><!--link User to UC3--><g id="link_User_UC3"><path d="M60.64,106.4594 C79.52,106.4594 109.09,106.4594 142.65,106.4594 " fill="none" id="User-to-UC3" style="stroke:#181818;stroke-width:1.0;"/><polygon fill="#181818" points="148.65,106.4594,139.65,102.4594,143.65,106.4594,139.65,110.4594,148.65,106.4594" style="stroke:#181818;stroke-width:1.0;"/></g><!--link ML to UC4--><g id="link_ML_UC4"><path d="M86.38,417.5594 C114.32,411.2494 146.0975,404.0717 175.6175,397.4017 " fill="none" id="ML-to-UC4" style="stroke:#181818;stroke-width:1.0;"/><polygon fill="#181818" points="181.47,396.0794,171.8097,394.1613,176.5929,397.1813,173.5729,401.9646,181.47,396.0794" style="stroke:#181818;stroke-width:1.0;"/></g><!--link ML to UC5--><g id="link_ML_UC5"><path d="M86.39,427.5894 C137.98,428.5394 231.14,428.4194 310,418.4594 C360.2,412.1194 410.7996,400.2042 449.3096,390.0142 " fill="none" id="ML-to-UC5" style="stroke:#181818;stroke-width:1.0;"/><polygon fill="#181818" points="455.11,388.4794,445.3862,386.9147,450.2764,389.7584,447.4327,394.6485,455.11,388.4794" style="stroke:#181818;stroke-width:1.0;"/></g><!--link Admin to UC6--><g id="link_Admin_UC6"><path d="M65.74,284.4294 C91.28,278.9394 132.1937,270.1492 169.0737,262.2292 " fill="none" id="Admin-to-UC6" style="stroke:#181818;stroke-width:1.0;"/><polygon fill="#181818" points="174.94,260.9694,165.3008,258.9482,170.0515,262.0192,166.9805,266.7699,174.94,260.9694" style="stroke:#181818;stroke-width:1.0;"/></g><!--link Admin to UC7--><g id="link_Admin_UC7"><path d="M65.74,291.5594 C90.56,295.6594 129.5101,302.1022 165.8601,308.1022 " fill="none" id="Admin-to-UC7" style="stroke:#181818;stroke-width:1.0;"/><polygon fill="#181818" points="171.78,309.0794,163.5516,303.6671,166.8468,308.2651,162.2487,311.5602,171.78,309.0794" style="stroke:#181818;stroke-width:1.0;"/></g><!--link UC1 to UC8--><g id="link_UC1_UC8"><path d="M309.61,178.1694 C346.64,178.0294 384.5,177.8908 420.94,177.7608 " fill="none" id="UC1-to-UC8" style="stroke:#181818;stroke-width:1.0;stroke-dasharray:7.0,7.0;"/><polygon fill="#181818" points="426.94,177.7394,417.9258,173.7715,421.94,177.7572,417.9543,181.7715,426.94,177.7394" style="stroke:#181818;stroke-width:1.0;"/><text fill="#000000" font-family="sans-serif" font-size="13" lengthAdjust="spacing" textLength="55" x="341" y="174.9545">&#171;include&#187;</text></g><!--link UC8 to UC9--><g id="link_UC8_UC9"><path d="M578.23,177.7694 C605.66,176.9494 636.87,174.9294 665,170.4594 C685.03,167.2794 701.0363,163.2542 719.1463,157.7842 " fill="none" id="UC8-to-UC9" style="stroke:#181818;stroke-width:1.0;stroke-dasharray:7.0,7.0;"/><polygon fill="#181818" points="724.89,156.0494,715.1179,154.8225,720.1036,157.4951,717.431,162.4808,724.89,156.0494" style="stroke:#181818;stroke-width:1.0;"/><text fill="#000000" font-family="sans-serif" font-size="13" lengthAdjust="spacing" textLength="55" x="609" y="166.9545">&#171;include&#187;</text></g><!--link UC2 to UC9--><g id="link_UC2_UC9"><path d="M565.92,115.0394 C607.85,120.7994 656.8758,127.5328 698.5158,133.2528 " fill="none" id="UC2-to-UC9" style="stroke:#181818;stroke-width:1.0;stroke-dasharray:7.0,7.0;"/><polygon fill="#181818" points="704.46,134.0694,696.0881,128.8818,699.5065,133.3889,694.9994,136.8074,704.46,134.0694" style="stroke:#181818;stroke-width:1.0;"/><text fill="#000000" font-family="sans-serif" font-size="13" lengthAdjust="spacing" textLength="55" x="609" y="117.9545">&#171;include&#187;</text></g><!--link UC3 to UC2--><g id="link_UC3_UC2"><path d="M310.34,106.4594 C347.97,106.4594 386.53,106.4594 423.16,106.4594 " fill="none" id="UC3-to-UC2" style="stroke:#181818;stroke-width:1.0;stroke-dasharray:7.0,7.0;"/><polygon fill="#181818" points="429.16,106.4594,420.16,102.4594,424.16,106.4594,420.16,110.4594,429.16,106.4594" style="stroke:#181818;stroke-width:1.0;"/><text fill="#000000" font-family="sans-serif" font-size="13" lengthAdjust="spacing" textLength="53" x="342" y="102.9545">&#171;extend&#187;</text></g><!--link UC4 to UC5--><g id="link_UC4_UC5"><path d="M294.38,383.0994 C334.91,381.6094 381.4341,379.8905 423.4541,378.3405 " fill="none" id="UC4-to-UC5" style="stroke:#181818;stroke-width:1.0;stroke-dasharray:7.0,7.0;"/><polygon fill="#181818" points="429.45,378.1194,420.3087,374.4539,424.4534,378.3037,420.6036,382.4484,429.45,378.1194" style="stroke:#181818;stroke-width:1.0;"/><text fill="#000000" font-family="sans-serif" font-size="13" lengthAdjust="spacing" textLength="55" x="341" y="376.9545">&#171;include&#187;</text></g><!--SRC=[TL9BQ-Cm4BxhLmo-x2c5vj4N9P2wAHIIicpJXJqAQUA8A9AHbAQXx7zVlTortGHyaEPxpCmdIrmxS1gCg3OEk338dD2AsArGDJLq1pLbMrhXgpjAX01JLKbi4VOM6RK8dmJWmPChe_UAbrfg0ujW-mUbr8U0QiFH9EI5lX_9NqASSDxtYMuHNl1WuH5T6W5UZzRX3WRmvitBqE5HqCft98GovoqA3vW2g0qCqnIN2vYhIYZCs7BH83E-4ohMuecGhssWE3z04HVptu_OvciQwqlDwiLSEGz5_SmumIIckShBDkktm0FyDCX5R90fmpQbt23RGgdLMd1KhB4PDIEqjZizoSfGeM2fESgi7NS6VQToJnrs69F6FUPosdUfbGWfDg54uLMRyLRpll5rOvpVygIp3wGscg6riC8FbwKtdLGajLQiZxrmRuEz_uVoo_n2IKEkTYDgIs9fC9Z6HsXTXktBA8ZRcNOzF99uu__7IP2aeBhaL4kagyxjEaYU5PDxZlqfoqkuk0Ya6xY3-tkHMDCf2PM4t7v3XcSGtsR-uL3nRrr6MJ6C2eoa9CXFqnUCis3IQ_4F]--></g></svg>