<?xml version="1.0" encoding="us-ascii" standalone="no"?><svg xmlns="http://www.w3.org/2000/svg" xmlns:xlink="http://www.w3.org/1999/xlink" contentStyleType="text/css" height="709px" preserveAspectRatio="none" style="width:519px;height:709px;background:#FFFFFF;" version="1.1" viewBox="0 0 519 709" width="519px" zoomAndPan="magnify"><defs/><g><text fill="#000000" font-family="sans-serif" font-size="14" font-weight="bold" lengthAdjust="spacing" textLength="303" x="106.625" y="34.5332">Model Training - Simplified Activity Diagram</text><ellipse cx="318" cy="58.6094" fill="#222222" rx="10" ry="10" style="stroke:#222222;stroke-width:1.0;"/><rect fill="#F1F1F1" height="35.0938" rx="12.5" ry="12.5" style="stroke:#181818;stroke-width:0.5;" width="146" x="245" y="88.6094"/><text fill="#000000" font-family="sans-serif" font-size="12" lengthAdjust="spacing" textLength="126" x="255" y="111.0664">Collect &amp; Load Dataset</text><rect fill="#F1F1F1" height="35.0938" rx="12.5" ry="12.5" style="stroke:#181818;stroke-width:0.5;" width="124" x="256" y="143.7031"/><text fill="#000000" font-family="sans-serif" font-size="12" lengthAdjust="spacing" textLength="104" x="266" y="166.1602">Check Data Quality</text><polygon fill="#F1F1F1" points="289.5,198.7969,346.5,198.7969,358.5,210.7969,346.5,222.7969,289.5,222.7969,277.5,210.7969,289.5,198.7969" style="stroke:#181818;stroke-width:0.5;"/><text fill="#000000" font-family="sans-serif" font-size="11" lengthAdjust="spacing" textLength="57" x="289.5" y="215.2979">Quality OK?</text><text fill="#000000" font-family="sans-serif" font-size="11" lengthAdjust="spacing" textLength="18" x="259.5" y="208.3799">yes</text><text fill="#000000" font-family="sans-serif" font-size="11" lengthAdjust="spacing" textLength="12" x="358.5" y="208.3799">no</text><path d="M231.25,232.7969 L231.25,258.3242 L211.25,262.3242 L231.25,266.3242 L231.25,291.8516 A0,0 0 0 0 231.25,291.8516 L393.25,291.8516 A0,0 0 0 0 393.25,291.8516 L393.25,242.7969 L383.25,232.7969 L231.25,232.7969 A0,0 0 0 0 231.25,232.7969 " fill="#FEFFDD" style="stroke:#181818;stroke-width:0.5;"/><path d="M383.25,232.7969 L383.25,242.7969 L393.25,242.7969 L383.25,232.7969 " fill="#FEFFDD" style="stroke:#181818;stroke-width:0.5;"/><ellipse cx="242.75" cy="246.6484" fill="#000000" rx="2.5" ry="2.5" style="stroke:#000000;stroke-width:0.0;"/><text fill="#000000" font-family="sans-serif" font-size="13" lengthAdjust="spacing" textLength="109" x="249.25" y="251.292">Remove duplicates</text><ellipse cx="242.75" cy="263" fill="#000000" rx="2.5" ry="2.5" style="stroke:#000000;stroke-width:0.0;"/><text fill="#000000" font-family="sans-serif" font-size="13" lengthAdjust="spacing" textLength="129" x="249.25" y="267.6436">Handle missing values</text><ellipse cx="242.75" cy="279.3516" fill="#000000" rx="2.5" ry="2.5" style="stroke:#000000;stroke-width:0.0;"/><text fill="#000000" font-family="sans-serif" font-size="13" lengthAdjust="spacing" textLength="94" x="249.25" y="283.9951">Balance dataset</text><rect fill="#F1F1F1" height="35.0938" rx="12.5" ry="12.5" style="stroke:#181818;stroke-width:0.5;" width="82" x="129.25" y="244.7773"/><text fill="#000000" font-family="sans-serif" font-size="12" lengthAdjust="spacing" textLength="62" x="139.25" y="267.2344">Clean Data</text><rect fill="#F1F1F1" height="35.0938" rx="12.5" ry="12.5" style="stroke:#181818;stroke-width:0.5;" width="159" x="90.75" y="311.8516"/><text fill="#000000" font-family="sans-serif" font-size="12" lengthAdjust="spacing" textLength="139" x="100.75" y="334.3086">Split Data (Train/Val/Test)</text><rect fill="#F1F1F1" height="35.0938" rx="12.5" ry="12.5" style="stroke:#181818;stroke-width:0.5;" width="210" x="65.25" y="366.9453"/><text fill="#000000" font-family="sans-serif" font-size="12" lengthAdjust="spacing" textLength="190" x="75.25" y="389.4023">Preprocess &amp; Feature Engineering</text><rect fill="#F1F1F1" height="35.0938" rx="12.5" ry="12.5" style="stroke:#181818;stroke-width:0.5;" width="103" x="118.75" y="422.0391"/><text fill="#000000" font-family="sans-serif" font-size="12" lengthAdjust="spacing" textLength="83" x="128.75" y="444.4961">Train ML Model</text><rect fill="#F1F1F1" height="35.0938" rx="12.5" ry="12.5" style="stroke:#181818;stroke-width:0.5;" width="141" x="99.75" y="477.1328"/><text fill="#000000" font-family="sans-serif" font-size="12" lengthAdjust="spacing" textLength="121" x="109.75" y="499.5898">Evaluate Performance</text><polygon fill="#F1F1F1" points="126.25,532.2266,214.25,532.2266,226.25,544.2266,214.25,556.2266,126.25,556.2266,114.25,544.2266,126.25,532.2266" style="stroke:#181818;stroke-width:0.5;"/><text fill="#000000" font-family="sans-serif" font-size="11" lengthAdjust="spacing" textLength="88" x="126.25" y="548.7275">Accuracy &gt; 85%?</text><text fill="#000000" font-family="sans-serif" font-size="11" lengthAdjust="spacing" textLength="18" x="96.25" y="541.8096">yes</text><text fill="#000000" font-family="sans-serif" font-size="11" lengthAdjust="spacing" textLength="12" x="226.25" y="541.8096">no</text><rect fill="#F1F1F1" height="35.0938" rx="12.5" ry="12.5" style="stroke:#181818;stroke-width:0.5;" width="150" x="11" y="566.2266"/><text fill="#000000" font-family="sans-serif" font-size="12" lengthAdjust="spacing" textLength="130" x="21" y="588.6836">Save Model &amp; Vectorizer</text><rect fill="#F1F1F1" height="35.0938" rx="12.5" ry="12.5" style="stroke:#181818;stroke-width:0.5;" width="58" x="57" y="621.3203"/><text fill="#000000" font-family="sans-serif" font-size="12" lengthAdjust="spacing" textLength="38" x="67" y="643.7773">Deploy</text><ellipse cx="86" cy="687.4141" fill="none" rx="11" ry="11" style="stroke:#222222;stroke-width:1.0;"/><ellipse cx="86" cy="687.4141" fill="#222222" rx="6" ry="6" style="stroke:#222222;stroke-width:1.0;"/><rect fill="#F1F1F1" height="35.0938" rx="12.5" ry="12.5" style="stroke:#181818;stroke-width:0.5;" width="147" x="181" y="566.2266"/><text fill="#000000" font-family="sans-serif" font-size="12" lengthAdjust="spacing" textLength="127" x="191" y="588.6836">Tune Hyperparameters</text><rect fill="#F1F1F1" height="35.0938" rx="12.5" ry="12.5" style="stroke:#181818;stroke-width:0.5;" width="105" x="403.25" y="232.7969"/><text fill="#000000" font-family="sans-serif" font-size="12" lengthAdjust="spacing" textLength="85" x="413.25" y="255.2539">Fix Data Issues</text><line style="stroke:#181818;stroke-width:1.0;" x1="318" x2="318" y1="68.6094" y2="88.6094"/><polygon fill="#181818" points="314,78.6094,318,88.6094,322,78.6094,318,82.6094" style="stroke:#181818;stroke-width:1.0;"/><line style="stroke:#181818;stroke-width:1.0;" x1="318" x2="318" y1="123.7031" y2="143.7031"/><polygon fill="#181818" points="314,133.7031,318,143.7031,322,133.7031,318,137.7031" style="stroke:#181818;stroke-width:1.0;"/><line style="stroke:#181818;stroke-width:1.0;" x1="170.25" x2="170.25" y1="279.8711" y2="311.8516"/><polygon fill="#181818" points="166.25,301.8516,170.25,311.8516,174.25,301.8516,170.25,305.8516" style="stroke:#181818;stroke-width:1.0;"/><line style="stroke:#181818;stroke-width:1.0;" x1="170.25" x2="170.25" y1="346.9453" y2="366.9453"/><polygon fill="#181818" points="166.25,356.9453,170.25,366.9453,174.25,356.9453,170.25,360.9453" style="stroke:#181818;stroke-width:1.0;"/><line style="stroke:#181818;stroke-width:1.0;" x1="170.25" x2="170.25" y1="402.0391" y2="422.0391"/><polygon fill="#181818" points="166.25,412.0391,170.25,422.0391,174.25,412.0391,170.25,416.0391" style="stroke:#181818;stroke-width:1.0;"/><line style="stroke:#181818;stroke-width:1.0;" x1="170.25" x2="170.25" y1="457.1328" y2="477.1328"/><polygon fill="#181818" points="166.25,467.1328,170.25,477.1328,174.25,467.1328,170.25,471.1328" style="stroke:#181818;stroke-width:1.0;"/><line style="stroke:#181818;stroke-width:1.0;" x1="86" x2="86" y1="601.3203" y2="621.3203"/><polygon fill="#181818" points="82,611.3203,86,621.3203,90,611.3203,86,615.3203" style="stroke:#181818;stroke-width:1.0;"/><line style="stroke:#181818;stroke-width:1.0;" x1="86" x2="86" y1="656.4141" y2="676.4141"/><polygon fill="#181818" points="82,666.4141,86,676.4141,90,666.4141,86,670.4141" style="stroke:#181818;stroke-width:1.0;"/><line style="stroke:#181818;stroke-width:1.0;" x1="114.25" x2="86" y1="544.2266" y2="544.2266"/><line style="stroke:#181818;stroke-width:1.0;" x1="86" x2="86" y1="544.2266" y2="566.2266"/><polygon fill="#181818" points="82,556.2266,86,566.2266,90,556.2266,86,560.2266" style="stroke:#181818;stroke-width:1.0;"/><line style="stroke:#181818;stroke-width:1.0;" x1="226.25" x2="254.5" y1="544.2266" y2="544.2266"/><line style="stroke:#181818;stroke-width:1.0;" x1="254.5" x2="254.5" y1="544.2266" y2="566.2266"/><polygon fill="#181818" points="250.5,556.2266,254.5,566.2266,258.5,556.2266,254.5,560.2266" style="stroke:#181818;stroke-width:1.0;"/><line style="stroke:#181818;stroke-width:1.0;" x1="170.25" x2="170.25" y1="512.2266" y2="532.2266"/><polygon fill="#181818" points="166.25,522.2266,170.25,532.2266,174.25,522.2266,170.25,526.2266" style="stroke:#181818;stroke-width:1.0;"/><line style="stroke:#181818;stroke-width:1.0;" x1="277.5" x2="170.25" y1="210.7969" y2="210.7969"/><line style="stroke:#181818;stroke-width:1.0;" x1="170.25" x2="170.25" y1="210.7969" y2="244.7773"/><polygon fill="#181818" points="166.25,234.7773,170.25,244.7773,174.25,234.7773,170.25,238.7773" style="stroke:#181818;stroke-width:1.0;"/><line style="stroke:#181818;stroke-width:1.0;" x1="358.5" x2="455.75" y1="210.7969" y2="210.7969"/><line style="stroke:#181818;stroke-width:1.0;" x1="455.75" x2="455.75" y1="210.7969" y2="232.7969"/><polygon fill="#181818" points="451.75,222.7969,455.75,232.7969,459.75,222.7969,455.75,226.7969" style="stroke:#181818;stroke-width:1.0;"/><line style="stroke:#181818;stroke-width:1.0;" x1="318" x2="318" y1="178.7969" y2="198.7969"/><polygon fill="#181818" points="314,188.7969,318,198.7969,322,188.7969,318,192.7969" style="stroke:#181818;stroke-width:1.0;"/><!--SRC=[NP5FQyCm3CNl-HIwhAI3qTDWjB3HzGyTQrctbjw5epPcZXri9Ipxz9FZT8o1BthIitzwPis6OESACd3qgAss5xY3Wwvgey-Q2fWhrgtc3fOQBnwhB0kCdhDikd36a68OmTPX0Kja3CIps2b9VVO2l3Ten2sgFaC-LF3s-ZG6Bib2tb4OPm1ofWj3Q7lRJ4hhcC3hIybI0Dp21rMk9IWQGLF850PzWxQG9IeTGgHlqJI_lMSqQ9MO4foeP8l-wk7DWrp62JNl0vYSq4oE57Wy6qRsdchl58KWgwu9kV44AtlHbiZBYzUvtWwxROhpgguYZz32dlpP-IhY3BsOo5ofngFgu14Uxc_-fn81iRr-q0XEahVp-flyB7MNL1lNfIAmg-E29X3arWt-OsC9DbrDlaRvFcBo8SqNnAZA58a-HwI_rkbQVwLSNaAGGADdSAJv7m00]--></g></svg>