<?xml version="1.0" encoding="us-ascii" standalone="no"?><svg xmlns="http://www.w3.org/2000/svg" xmlns:xlink="http://www.w3.org/1999/xlink" contentStyleType="text/css" height="694px" preserveAspectRatio="none" style="width:684px;height:694px;background:#FFFFFF;" version="1.1" viewBox="0 0 684 694" width="684px" zoomAndPan="magnify"><defs/><g><text fill="#000000" font-family="sans-serif" font-size="14" font-weight="bold" lengthAdjust="spacing" textLength="224" x="228.5" y="34.5332">Testing Phase - Activity Diagram</text><ellipse cx="455.625" cy="58.6094" fill="#222222" rx="10" ry="10" style="stroke:#222222;stroke-width:1.0;"/><rect fill="#F1F1F1" height="35.0938" rx="12.5" ry="12.5" style="stroke:#181818;stroke-width:0.5;" width="163" x="374.125" y="88.6094"/><text fill="#000000" font-family="sans-serif" font-size="12" lengthAdjust="spacing" textLength="143" x="384.125" y="111.0664">Prepare Test Environment</text><rect fill="#F1F1F1" height="35.0938" rx="12.5" ry="12.5" style="stroke:#181818;stroke-width:0.5;" width="121" x="395.125" y="143.7031"/><text fill="#000000" font-family="sans-serif" font-size="12" lengthAdjust="spacing" textLength="101" x="405.125" y="166.1602">Load Test Dataset</text><rect fill="#F1F1F1" height="35.0938" rx="12.5" ry="12.5" style="stroke:#181818;stroke-width:0.5;" width="122" x="394.625" y="198.7969"/><text fill="#000000" font-family="sans-serif" font-size="12" lengthAdjust="spacing" textLength="102" x="404.625" y="221.2539">Execute Unit Tests</text><polygon fill="#F1F1F1" points="415.125,253.8906,496.125,253.8906,508.125,265.8906,496.125,277.8906,415.125,277.8906,403.125,265.8906,415.125,253.8906" style="stroke:#181818;stroke-width:0.5;"/><text fill="#000000" font-family="sans-serif" font-size="11" lengthAdjust="spacing" textLength="81" x="415.125" y="270.3916">Unit Tests Pass?</text><text fill="#000000" font-family="sans-serif" font-size="11" lengthAdjust="spacing" textLength="18" x="385.125" y="263.4736">yes</text><text fill="#000000" font-family="sans-serif" font-size="11" lengthAdjust="spacing" textLength="12" x="508.125" y="263.4736">no</text><rect fill="#F1F1F1" height="35.0938" rx="12.5" ry="12.5" style="stroke:#181818;stroke-width:0.5;" width="158" x="223.25" y="287.8906"/><text fill="#000000" font-family="sans-serif" font-size="12" lengthAdjust="spacing" textLength="138" x="233.25" y="310.3477">Execute Integration Tests</text><polygon fill="#F1F1F1" points="245.75,342.9844,358.75,342.9844,370.75,354.9844,358.75,366.9844,245.75,366.9844,233.75,354.9844,245.75,342.9844" style="stroke:#181818;stroke-width:0.5;"/><text fill="#000000" font-family="sans-serif" font-size="11" lengthAdjust="spacing" textLength="113" x="245.75" y="359.4854">Integration Tests Pass?</text><text fill="#000000" font-family="sans-serif" font-size="11" lengthAdjust="spacing" textLength="18" x="215.75" y="352.5674">yes</text><text fill="#000000" font-family="sans-serif" font-size="11" lengthAdjust="spacing" textLength="12" x="370.75" y="352.5674">no</text><rect fill="#F1F1F1" height="35.0938" rx="12.5" ry="12.5" style="stroke:#181818;stroke-width:0.5;" width="141" x="87.5" y="376.9844"/><text fill="#000000" font-family="sans-serif" font-size="12" lengthAdjust="spacing" textLength="121" x="97.5" y="399.4414">Execute System Tests</text><path d="M270,422.0781 L270,455.7813 L250,459.7813 L270,463.7813 L270,497.4844 A0,0 0 0 0 270,497.4844 L358,497.4844 A0,0 0 0 0 358,497.4844 L358,432.0781 L348,422.0781 L270,422.0781 A0,0 0 0 0 270,422.0781 " fill="#FEFFDD" style="stroke:#181818;stroke-width:0.5;"/><path d="M348,422.0781 L348,432.0781 L358,432.0781 L348,422.0781 " fill="#FEFFDD" style="stroke:#181818;stroke-width:0.5;"/><ellipse cx="281.5" cy="435.9297" fill="#000000" rx="2.5" ry="2.5" style="stroke:#000000;stroke-width:0.0;"/><text fill="#000000" font-family="sans-serif" font-size="13" lengthAdjust="spacing" textLength="55" x="288" y="440.5732">Accuracy</text><ellipse cx="281.5" cy="452.2813" fill="#000000" rx="2.5" ry="2.5" style="stroke:#000000;stroke-width:0.0;"/><text fill="#000000" font-family="sans-serif" font-size="13" lengthAdjust="spacing" textLength="54" x="288" y="456.9248">Precision</text><ellipse cx="281.5" cy="468.6328" fill="#000000" rx="2.5" ry="2.5" style="stroke:#000000;stroke-width:0.0;"/><text fill="#000000" font-family="sans-serif" font-size="13" lengthAdjust="spacing" textLength="36" x="288" y="473.2764">Recall</text><ellipse cx="281.5" cy="484.9844" fill="#000000" rx="2.5" ry="2.5" style="stroke:#000000;stroke-width:0.0;"/><text fill="#000000" font-family="sans-serif" font-size="13" lengthAdjust="spacing" textLength="53" x="288" y="489.6279">F1-Score</text><rect fill="#F1F1F1" height="35.0938" rx="12.5" ry="12.5" style="stroke:#181818;stroke-width:0.5;" width="184" x="66" y="442.2344"/><text fill="#000000" font-family="sans-serif" font-size="12" lengthAdjust="spacing" textLength="164" x="76" y="464.6914">Measure Performance Metrics</text><polygon fill="#F1F1F1" points="120.5,517.4844,195.5,517.4844,207.5,529.4844,195.5,541.4844,120.5,541.4844,108.5,529.4844,120.5,517.4844" style="stroke:#181818;stroke-width:0.5;"/><text fill="#000000" font-family="sans-serif" font-size="11" lengthAdjust="spacing" textLength="75" x="120.5" y="533.9854">Metrics &gt; 85%?</text><text fill="#000000" font-family="sans-serif" font-size="11" lengthAdjust="spacing" textLength="18" x="90.5" y="527.0674">yes</text><text fill="#000000" font-family="sans-serif" font-size="11" lengthAdjust="spacing" textLength="12" x="207.5" y="527.0674">no</text><rect fill="#F1F1F1" height="35.0938" rx="12.5" ry="12.5" style="stroke:#181818;stroke-width:0.5;" width="138" x="17" y="551.4844"/><text fill="#000000" font-family="sans-serif" font-size="12" lengthAdjust="spacing" textLength="118" x="27" y="573.9414">Generate Test Report</text><rect fill="#F1F1F1" height="35.0938" rx="12.5" ry="12.5" style="stroke:#181818;stroke-width:0.5;" width="150" x="11" y="606.5781"/><text fill="#000000" font-family="sans-serif" font-size="12" lengthAdjust="spacing" textLength="130" x="21" y="629.0352">Approve for Deployment</text><ellipse cx="86" cy="672.6719" fill="none" rx="11" ry="11" style="stroke:#222222;stroke-width:1.0;"/><ellipse cx="86" cy="672.6719" fill="#222222" rx="6" ry="6" style="stroke:#222222;stroke-width:1.0;"/><rect fill="#F1F1F1" height="35.0938" rx="12.5" ry="12.5" style="stroke:#181818;stroke-width:0.5;" width="98" x="181" y="551.4844"/><text fill="#000000" font-family="sans-serif" font-size="12" lengthAdjust="spacing" textLength="78" x="191" y="573.9414">Report Issues</text><rect fill="#F1F1F1" height="35.0938" rx="12.5" ry="12.5" style="stroke:#181818;stroke-width:0.5;" width="96" x="182" y="606.5781"/><text fill="#000000" font-family="sans-serif" font-size="12" lengthAdjust="spacing" textLength="76" x="192" y="629.0352">Retrain Model</text><rect fill="#F1F1F1" height="35.0938" rx="12.5" ry="12.5" style="stroke:#181818;stroke-width:0.5;" width="137" x="378" y="376.9844"/><text fill="#000000" font-family="sans-serif" font-size="12" lengthAdjust="spacing" textLength="117" x="388" y="399.4414">Fix Integration Issues</text><rect fill="#F1F1F1" height="35.0938" rx="12.5" ry="12.5" style="stroke:#181818;stroke-width:0.5;" width="128" x="545" y="287.8906"/><text fill="#000000" font-family="sans-serif" font-size="12" lengthAdjust="spacing" textLength="108" x="555" y="310.3477">Fix Unit Test Issues</text><line style="stroke:#181818;stroke-width:1.0;" x1="455.625" x2="455.625" y1="68.6094" y2="88.6094"/><polygon fill="#181818" points="451.625,78.6094,455.625,88.6094,459.625,78.6094,455.625,82.6094" style="stroke:#181818;stroke-width:1.0;"/><line style="stroke:#181818;stroke-width:1.0;" x1="455.625" x2="455.625" y1="123.7031" y2="143.7031"/><polygon fill="#181818" points="451.625,133.7031,455.625,143.7031,459.625,133.7031,455.625,137.7031" style="stroke:#181818;stroke-width:1.0;"/><line style="stroke:#181818;stroke-width:1.0;" x1="455.625" x2="455.625" y1="178.7969" y2="198.7969"/><polygon fill="#181818" points="451.625,188.7969,455.625,198.7969,459.625,188.7969,455.625,192.7969" style="stroke:#181818;stroke-width:1.0;"/><line style="stroke:#181818;stroke-width:1.0;" x1="158" x2="158" y1="412.0781" y2="442.2344"/><polygon fill="#181818" points="154,432.2344,158,442.2344,162,432.2344,158,436.2344" style="stroke:#181818;stroke-width:1.0;"/><line style="stroke:#181818;stroke-width:1.0;" x1="86" x2="86" y1="586.5781" y2="606.5781"/><polygon fill="#181818" points="82,596.5781,86,606.5781,90,596.5781,86,600.5781" style="stroke:#181818;stroke-width:1.0;"/><line style="stroke:#181818;stroke-width:1.0;" x1="86" x2="86" y1="641.6719" y2="661.6719"/><polygon fill="#181818" points="82,651.6719,86,661.6719,90,651.6719,86,655.6719" style="stroke:#181818;stroke-width:1.0;"/><line style="stroke:#181818;stroke-width:1.0;" x1="230" x2="230" y1="586.5781" y2="606.5781"/><polygon fill="#181818" points="226,596.5781,230,606.5781,234,596.5781,230,600.5781" style="stroke:#181818;stroke-width:1.0;"/><line style="stroke:#181818;stroke-width:1.0;" x1="108.5" x2="86" y1="529.4844" y2="529.4844"/><line style="stroke:#181818;stroke-width:1.0;" x1="86" x2="86" y1="529.4844" y2="551.4844"/><polygon fill="#181818" points="82,541.4844,86,551.4844,90,541.4844,86,545.4844" style="stroke:#181818;stroke-width:1.0;"/><line style="stroke:#181818;stroke-width:1.0;" x1="207.5" x2="230" y1="529.4844" y2="529.4844"/><line style="stroke:#181818;stroke-width:1.0;" x1="230" x2="230" y1="529.4844" y2="551.4844"/><polygon fill="#181818" points="226,541.4844,230,551.4844,234,541.4844,230,545.4844" style="stroke:#181818;stroke-width:1.0;"/><line style="stroke:#181818;stroke-width:1.0;" x1="158" x2="158" y1="477.3281" y2="517.4844"/><polygon fill="#181818" points="154,507.4844,158,517.4844,162,507.4844,158,511.4844" style="stroke:#181818;stroke-width:1.0;"/><line style="stroke:#181818;stroke-width:1.0;" x1="233.75" x2="158" y1="354.9844" y2="354.9844"/><line style="stroke:#181818;stroke-width:1.0;" x1="158" x2="158" y1="354.9844" y2="376.9844"/><polygon fill="#181818" points="154,366.9844,158,376.9844,162,366.9844,158,370.9844" style="stroke:#181818;stroke-width:1.0;"/><line style="stroke:#181818;stroke-width:1.0;" x1="370.75" x2="446.5" y1="354.9844" y2="354.9844"/><line style="stroke:#181818;stroke-width:1.0;" x1="446.5" x2="446.5" y1="354.9844" y2="376.9844"/><polygon fill="#181818" points="442.5,366.9844,446.5,376.9844,450.5,366.9844,446.5,370.9844" style="stroke:#181818;stroke-width:1.0;"/><line style="stroke:#181818;stroke-width:1.0;" x1="302.25" x2="302.25" y1="322.9844" y2="342.9844"/><polygon fill="#181818" points="298.25,332.9844,302.25,342.9844,306.25,332.9844,302.25,336.9844" style="stroke:#181818;stroke-width:1.0;"/><line style="stroke:#181818;stroke-width:1.0;" x1="403.125" x2="302.25" y1="265.8906" y2="265.8906"/><line style="stroke:#181818;stroke-width:1.0;" x1="302.25" x2="302.25" y1="265.8906" y2="287.8906"/><polygon fill="#181818" points="298.25,277.8906,302.25,287.8906,306.25,277.8906,302.25,281.8906" style="stroke:#181818;stroke-width:1.0;"/><line style="stroke:#181818;stroke-width:1.0;" x1="508.125" x2="609" y1="265.8906" y2="265.8906"/><line style="stroke:#181818;stroke-width:1.0;" x1="609" x2="609" y1="265.8906" y2="287.8906"/><polygon fill="#181818" points="605,277.8906,609,287.8906,613,277.8906,609,281.8906" style="stroke:#181818;stroke-width:1.0;"/><line style="stroke:#181818;stroke-width:1.0;" x1="455.625" x2="455.625" y1="233.8906" y2="253.8906"/><polygon fill="#181818" points="451.625,243.8906,455.625,253.8906,459.625,243.8906,455.625,247.8906" style="stroke:#181818;stroke-width:1.0;"/><!--SRC=[RPB1QiCm38RlUGfT1ksWXnq6euMDGjjHM26qsmCOHsa4YHrifJHlFzM9atGT-E9V-Z_hjyt49S8tUYPpXhHG7c41Qyrq8MvXG-hiL9KadfNZ95cc3clbEWTipOMSDHKQNadjowgiAsmK2oY8solgXX5-374eUb4fXzaeGAgy_vW35sXWrgAV9m2o1k_UCCeOJDP4H6YuOHvg_z92-uHuQZrZDS9Y_O3ADn8lHPTRLocZ4Gx8ZdJVPgou7PqB3bk0PxaitJYbsq6GEzBaPQ11EQ9MPJbiTo-BaxOEWu0c2zHnYbki_b1uXxVNfySqVQTC_8a69Nx_8aUihUFLdvvrNJjxGP18iC6wj6ttP7TTdcqzLR2Khp0pDXwuxDYmzxv1lnfLTeeC76o6PLGpPAMB68_ocEsUkTpHzUvjf-W14G79r1oimm-Q67jRP_e5]--></g></svg>